<?xml version="1.0" encoding="utf-8"?>
<!-- Generator: Adobe Illustrator 26.0.2, SVG Export Plug-In . SVG Version: 6.00 Build 0)  -->
<svg version="1.1" id="Layer_1" xmlns="http://www.w3.org/2000/svg" xmlns:xlink="http://www.w3.org/1999/xlink" x="0px" y="0px"
	 viewBox="0 0 298.9 30.1" style="enable-background:new 0 0 298.9 30.1;" xml:space="preserve">
<style type="text/css">
	.st0{fill:#272827;}
</style>
<g id="Layer_2_00000065759356241056658740000010635343629123435155_">
	<g id="Layer_1-2">
		<path class="st0" d="M26,9c0,6.6-5.7,8.6-11.2,10.8c-2.4,0.8-4.4,2.7-5.4,5h16.1v-0.6h0.3v5.5H7.9c-0.1-4.3,2.3-8.3,6.2-10.2
			c0.7-0.7,6.8-2.5,6.8-11.5c0-3.2-0.9-7.8-3.9-7.8c-3.4,0-4.1,5.7-4.1,8.3c0.2,1.4-0.9,2.7-2.3,2.9c-0.1,0-0.1,0-0.2,0
			C9,11.5,7.9,10.4,7.9,9c0,0,0,0,0,0C7.8,4.4,12,0,16.9,0C21.9,0.1,25.8,4.1,26,9z"/>
		<path class="st0" d="M54,14.9c-0.1,7.9-6.3,14.3-14.2,14.8H29v-0.4h1V0.4h-1V0h10.8C47.6,0.4,53.6,6.8,54,14.9z M48.9,15
			c0-6.7-1-13.9-9.4-14.6h-4.8v28.9h4.6C47.4,29.5,48.9,21.6,48.9,15z"/>
		<path class="st0" d="M73.2,0.2L58.1,29.7h-0.4L72.9,0.2H73.2z"/>
		<path class="st0" d="M94.2,7.6c0,3.4-2.7,6.4-6.8,7.3c4,0.7,6.8,3.8,6.8,7.3c0,4.6-4.1,7.3-8.4,7.4c-2,0.1-4-0.6-5.7-1.8
			c-1.8-1.3-3-3.4-3-5.7c0-1.3,1-2.4,2.4-2.4c0,0,0,0,0,0c1.3,0,2.4,1.1,2.4,2.4c0.1,1.5,0.3,2.9,0.6,4.3c0.3,1.4,1.3,2.5,2.7,2.8
			c5.8,1.1,5.6-14.2,0.4-14.2h-1.5v0.5h-0.4v-1.4h0.4v0.4h1.5c4.8,0,5.7-13.8,0.4-14.1c-3.2,0-4.1,3.6-4.1,6.5c0,1.6-0.6,3-2.4,3
			c-1.3,0-2.4-1-2.4-2.3c0,0,0-0.1,0-0.1c0-4.4,4.3-7.3,8.5-7.4C89.5,0.1,94.2,2.9,94.2,7.6z"/>
		<path class="st0" d="M122.6,14.9c-0.1,7.9-6.3,14.3-14.2,14.8H97.6v-0.4h1.1V0.4h-1.1V0h10.8C116.2,0.4,122.2,6.8,122.6,14.9z
			 M117.5,15c0-6.7-1-13.9-9.4-14.6h-4.8v28.9h4.7C116,29.5,117.5,21.6,117.5,15L117.5,15z"/>
		<path class="st0" d="M150.7,5.1h1.7l11.4,24.6h-2l-3.1-6.9h-14.4l-3.1,6.9h-1.9L150.7,5.1z M157.9,21.2l-6.4-14.1L145,21.2H157.9z
			"/>
		<path class="st0" d="M166,11.9h1.7v3.3c1.2-2.4,3.7-3.8,6.4-3.7c4.5,0,7.1,3,7.1,7.3v10.9h-1.7V19.1c0-3.7-2-6.1-5.7-6.1
			c-3.4-0.1-6.1,2.6-6.2,6c0,0.1,0,0.2,0,0.4v10.3H166L166,11.9z"/>
		<path class="st0" d="M184.9,4.9h2.1v2.3h-2.1V4.9z M185.1,11.9h1.7v17.8h-1.7V11.9z"/>
		<path class="st0" d="M190.9,11.9h1.7v3.2c1.1-2.2,3.4-3.6,5.9-3.6c2.6-0.1,5,1.5,6,3.8c1.2-2.4,3.7-3.9,6.4-3.8
			c4.2,0,6.9,3,6.9,7.4v10.8h-1.7V19.1c0-3.9-1.9-6.1-5.3-6.1c-3,0-5.6,2.3-5.6,6.3v10.4h-1.7V19c0-3.7-2-6-5.2-6s-5.7,2.8-5.7,6.4
			v10.3h-1.7V11.9z"/>
		<path class="st0" d="M219.9,24.5L219.9,24.5c0-3.8,3.2-5.9,7.8-5.9c2,0,4,0.2,5.9,0.8v-0.8c0-3.6-2.2-5.4-5.9-5.4
			c-2,0-3.9,0.5-5.6,1.4l-0.6-1.5c2-1,4.1-1.5,6.3-1.5c2.1-0.1,4.1,0.6,5.6,2c1.3,1.4,1.9,3.2,1.8,5v11.1h-1.7v-3
			c-1.6,2.2-4.1,3.5-6.8,3.4C223.4,30.1,219.9,28.3,219.9,24.5z M233.6,23v-2c-2-0.5-4-0.8-6-0.8c-3.8,0-5.9,1.6-5.9,4.1v0.1
			c0,2.6,2.4,4.1,5.2,4.1C230.5,28.5,233.6,26.3,233.6,23z"/>
		<path class="st0" d="M239.5,25.1V13.4h-2.6v-1.6h2.6V6.2h1.7v5.7h6.2v1.6h-6.2V25c0,2.5,1.5,3.5,3.6,3.5c0.9,0,1.8-0.2,2.6-0.6
			v1.6c-0.9,0.4-1.9,0.6-2.9,0.6C241.7,30,239.5,28.5,239.5,25.1z"/>
		<path class="st0" d="M250,4.9h2.1v2.3H250V4.9z M250.2,11.9h1.7v17.8h-1.7V11.9z"/>
		<path class="st0" d="M254.9,20.9L254.9,20.9c-0.1-5.2,4-9.3,9.1-9.4c0,0,0.1,0,0.1,0c5,0,9.1,4.1,9.1,9.1c0,0.1,0,0.1,0,0.2v0.1
			c0.1,5.1-4,9.3-9.1,9.3c0,0-0.1,0-0.1,0c-5,0-9.1-4.1-9.1-9.1C254.9,21,254.9,20.9,254.9,20.9z M271.3,20.9L271.3,20.9
			c0.1-4.2-3.1-7.6-7.2-7.8c-0.1,0-0.1,0-0.2,0c-4.1,0-7.3,3.4-7.3,7.4c0,0.1,0,0.2,0,0.2v0.1c-0.1,4.1,3.1,7.6,7.2,7.7
			c0.1,0,0.1,0,0.2,0c4.1-0.1,7.3-3.4,7.2-7.5C271.3,21,271.3,20.9,271.3,20.9L271.3,20.9z"/>
		<path class="st0" d="M275.8,11.9h1.7v3.3c1.2-2.4,3.7-3.8,6.4-3.7c4.5,0,7.1,3,7.1,7.3v10.9h-1.7V19.1c0-3.7-2-6.1-5.7-6.1
			c-3.4-0.1-6.1,2.6-6.2,6c0,0.1,0,0.2,0,0.4v10.3h-1.7V11.9z"/>
	</g>
</g>
</svg>
