<?xml version="1.0" encoding="utf-8"?>
<!-- Generator: Adobe Illustrator 26.0.2, SVG Export Plug-In . SVG Version: 6.00 Build 0)  -->
<svg version="1.1" id="Layer_1" xmlns="http://www.w3.org/2000/svg" xmlns:xlink="http://www.w3.org/1999/xlink" x="0px" y="0px"
	 viewBox="0 0 298.9 42" style="enable-background:new 0 0 298.9 42;" xml:space="preserve">
<style type="text/css">
	.st0{fill:#272827;}
</style>
<g id="Layer_2_00000157266913983362973870000011317266531457472440_">
	<g id="Layer_1-2">
		<path class="st0" d="M43.5,14.9c-0.1,7.9-6.3,14.3-14.2,14.8H18.4v-0.4h1V0.4h-1V0h10.8C37.1,0.4,43.1,6.8,43.5,14.9z M38.4,15
			c0-6.7-1-13.9-9.4-14.6h-4.8v28.9h4.6C36.9,29.4,38.4,21.6,38.4,15z"/>
		<path class="st0" d="M50.5,29.4h0.8v0.3h-6.1v-0.3h0.8V12.5h-0.8v-0.4h6.1v0.4h-0.8L50.5,29.4z M46.1,7.5
			c-0.1-1.2,0.9-2.3,2.1-2.4s2.3,0.9,2.4,2.1c0,0.1,0,0.2,0,0.3c-0.1,1.2-1.2,2.2-2.4,2.1C47,9.5,46.1,8.6,46.1,7.5z"/>
		<path class="st0" d="M69.9,20.6V21c0,0.3,0,0.7-0.1,1c-0.5,3.7-3.2,6.6-6.8,7.3c-0.6,0.1-1.1,0.2-1.7,0.2c-0.6,0-1.1-0.1-1.6-0.2
			c-1.1-0.2-2.1-0.7-3.1-1.3c0.5,1.6,2.5,2.3,3.1,2.5l5.3,1.8c1.1,0.4,3.9,1.6,4.3,4.3c0,2.2-1.6,4-4.5,4.9l0,0
			c-1.1,0.3-2.2,0.5-3.3,0.5c-3.3,0-7.1-1.4-7.1-3.6c0-1.2,1-2.2,2.2-2.2s2.2,1,2.2,2.2c0,1.2-0.9,2.2-2.1,2.2
			c1.5,0.8,3.1,1.2,4.8,1.2c3.1,0,4.6-1.1,4.6-2.6c0-1.1-0.9-1.6-1.8-2l-6-2c-0.4-0.1-4.2-1.4-4.6-4.4c0-1.5,0.7-2.9,1.9-3.7
			c-1.7-1.6-2.6-3.8-2.6-6.1c0-4.2,3-7.7,7.1-8.4c0.5-0.1,0.9-0.1,1.4-0.1c0.5,0,1,0,1.4,0.1c0.8,0.2,1.5,0.4,2.2,0.7
			c1-0.7,2.3-1,3.5-1v0.3c-1.1,0-2.3,0.3-3.2,0.8c0.2,0.1,0.4,0.2,0.6,0.3C68.2,15.2,69.7,17.8,69.9,20.6z M65.2,21.1
			c0-2-0.3-4.1-1-6c-0.3-0.8-1.2-2.4-2.8-2.4s-2.5,1.6-2.8,2.4c-0.7,1.9-1.1,4-1.1,6c0,1.6,0.2,3.1,0.6,4.6c0.1,0.3,0.6,3.5,3.2,3.5
			c2.1,0,3-2.6,3-2.8v0.1C64.9,24.7,65.2,22.9,65.2,21.1z"/>
		<path class="st0" d="M76.4,29.4h0.8v0.3h-6.1v-0.3H72V12.5h-0.8v-0.4h6.1v0.4h-0.8V29.4z M72,7.5c-0.1-1.2,0.9-2.3,2.1-2.4
			c1.2-0.1,2.3,0.9,2.4,2.1c0,0.1,0,0.2,0,0.3c-0.1,1.2-1.2,2.2-2.4,2.1C72.9,9.5,72.1,8.6,72,7.5z"/>
		<path class="st0" d="M88.7,11.2v1.6h-0.3v-0.6h-4.5v11.6c0,2.1,1.1,3.9,2.3,3.9c1,0,1.8-1.3,2.1-3h0.3c-0.4,2.9-2.3,5.1-4.4,5.1
			c-2.5,0-4.6-2.6-4.6-5.8l0,0V5.5h-0.7V5.2h5.9v0.3h-0.8v6.4h4.5v-0.7H88.7z"/>
		<path class="st0" d="M109.5,12.5v16.8h0.8v0.3h-6v-0.3h0.8V27c-1.7,1.8-4,2.7-6.4,2.7c-0.6,0-1.1-0.1-1.7-0.2c-4-0.8-7-4.4-7-8.5
			c0-4.1,2.9-7.7,7-8.5c0.6-0.2,1.2-0.2,1.7-0.2c2.4,0,4.6,1,6.3,2.7v-2.5h-0.8v-0.3h6v0.3H109.5z M105,15.4
			c-1.6-1.8-3.9-2.8-6.4-2.8c-3.2,0-3.9,5.7-3.9,8.5c0,2.2,0,8.4,3.9,8.4c2.4,0,4.7-1.1,6.4-2.9V15.4z"/>
		<path class="st0" d="M117.6,29.3h0.8v0.4h-6v-0.4h0.8v-29h-0.8V0h6v0.3h-0.8V29.3z"/>
		<path class="st0" d="M137.6,5.2h1.7l9.8,14.5L159,5.2h1.7v24.5h-1.8V8.4l-9.7,14.1H149l-9.7-14.1v21.2h-1.8V5.2z"/>
		<path class="st0" d="M163.4,24.5L163.4,24.5c0-3.8,3.2-5.9,7.8-5.9c2,0,4,0.2,5.9,0.8v-0.8c0-3.6-2.2-5.4-5.9-5.4
			c-2,0-3.9,0.5-5.6,1.4l-0.6-1.5c2-1,4.2-1.6,6.4-1.5c2.1-0.1,4.1,0.6,5.6,2c1.3,1.4,1.9,3.2,1.8,5v11.1h-1.7v-3
			c-1.6,2.2-4.1,3.5-6.8,3.4C167,30.1,163.4,28.3,163.4,24.5z M177.2,23v-2c-2-0.5-4-0.8-6-0.8c-3.8,0-5.9,1.6-5.9,4.1v0.1
			c0,2.6,2.4,4.1,5.2,4.1C174.1,28.5,177.2,26.3,177.2,23z"/>
		<path class="st0" d="M182.4,11.9h1.7V17c1.3-3.2,4.4-5.4,7.9-5.4v1.9h-0.2c-4.1,0-7.7,3.1-7.7,8.9v7.3h-1.7V11.9z"/>
		<path class="st0" d="M193.7,4.2h1.7v19.1l11-11.4h2.3l-7.8,7.9l8,9.9h-2.2l-7-8.7l-4.3,4.4v4.3h-1.7V4.2z"/>
		<path class="st0" d="M208.6,20.8L208.6,20.8c0-5.2,3.6-9.4,8.4-9.4c5,0,8.2,4,8.2,9.3c0,0.2,0,0.5,0,0.7h-14.8c0.3,4.4,3.5,7,7,7
			c2.4,0,4.6-1,6.1-2.8l1.2,1c-1.8,2.2-4.5,3.4-7.4,3.4C212.6,30.1,208.6,26.4,208.6,20.8z M223.4,20c-0.3-3.6-2.3-6.9-6.4-6.9
			c-3.5-0.1-6.3,2.9-6.5,6.9H223.4z"/>
		<path class="st0" d="M228.5,25.1V13.4H226v-1.6h2.6V6.2h1.7v5.7h6.3v1.6h-6.3V25c0,2.5,1.5,3.5,3.6,3.5c0.9,0,1.8-0.2,2.6-0.6v1.6
			c-0.9,0.4-1.9,0.6-2.9,0.6C230.7,30,228.5,28.5,228.5,25.1z"/>
		<path class="st0" d="M239,4.9h2.1v2.3H239V4.9z M239.2,11.9h1.7v17.8h-1.7V11.9z"/>
		<path class="st0" d="M245,11.9h1.7v3.3c1.2-2.4,3.7-3.8,6.4-3.7c4.5,0,7.1,3,7.1,7.3v10.9h-1.7V19.1c0-3.7-2-6.1-5.7-6.1
			c-3.4-0.1-6.1,2.6-6.2,6c0,0.1,0,0.2,0,0.4v10.3H245V11.9z"/>
		<path class="st0" d="M263.4,32.6l1-1.4c2,1.6,4.6,2.5,7.2,2.5c4.1,0,7-2.3,7-6.9v-2.6c-1.6,2.6-4.4,4.1-7.5,4.1
			c-4.7,0-8.5-3.7-8.5-8.4c0,0,0,0,0,0v-0.1c0-4.7,3.8-8.5,8.5-8.5c0,0,0.1,0,0.1,0c3,0,5.8,1.5,7.5,4v-3.6h1.8v15.1
			c0.1,2.3-0.7,4.4-2.3,6.1c-1.8,1.6-4.1,2.5-6.5,2.4C268.7,35.4,265.8,34.4,263.4,32.6z M278.8,20L278.8,20c0-4.2-3.6-6.9-7.4-6.9
			c-3.6-0.2-6.7,2.6-6.9,6.2c0,0.2,0,0.3,0,0.5V20c0,3.7,3,6.8,6.8,6.8c0.1,0,0.1,0,0.2,0C275.2,26.7,278.8,24,278.8,20z"/>
	</g>
</g>
</svg>
