<?xml version="1.0" encoding="utf-8"?>
<!-- Generator: Adobe Illustrator 26.0.2, SVG Export Plug-In . SVG Version: 6.00 Build 0)  -->
<svg version="1.1" id="Layer_1" xmlns="http://www.w3.org/2000/svg" xmlns:xlink="http://www.w3.org/1999/xlink" x="0px" y="0px"
	 viewBox="0 0 298.9 42" style="enable-background:new 0 0 298.9 42;" xml:space="preserve">
<style type="text/css">
	.st0{fill:#272827;}
</style>
<g id="Layer_2_00000050651911055615176840000013573219946592140700_">
	<g id="Layer_1-2">
		<path class="st0" d="M23.8,15.2V26c-1.3,1.1-2.7,2-4.3,2.5C10.3,31.8,0.4,24.9,0,14.8v-0.1C0.4,7.2,6.4,0.1,14.6,0.1
			c2,0,8.4,0.8,8.4,3.9c0,1.3-1,2.4-2.3,2.4s-2.4-1-2.4-2.3c0-1.2,0.8-2.2,2-2.4c-1.8-0.8-3.7-1.2-5.7-1.2C6.3,0.5,5,8,5,14.9
			c0,5,0.5,12,6.9,13.8c0.9,0.2,1.8,0.3,2.8,0.3c1.5,0,3.1-0.3,4.5-0.7V15.5h-1.1v-0.3H23.8z"/>
		<path class="st0" d="M38,15.1c-0.1,1.2-1.2,2.2-2.4,2.1c-1.1-0.1-2-1-2.1-2.1c0-0.7,0.3-1.4,0.8-1.8c-1.5,0.3-2.8,1-3.8,2.1v13.9
			h0.8v0.3h-6v-0.3h0.7V12.5h-0.7v-0.3h6v0.3h-0.8V15c1.4-1.3,3.2-2.1,5.2-2.2C37,12.9,38,13.9,38,15.1C38,15.1,38,15.1,38,15.1z"/>
		<path class="st0" d="M58.2,12.6v16.8H59v0.3h-6v-0.3h0.8V27c-1.7,1.7-4,2.7-6.4,2.7c-0.6,0-1.1-0.1-1.7-0.2
			c-4.7-1-7.7-5.5-6.8-10.2c0.7-3.4,3.3-6.1,6.7-6.8c0.6-0.1,1.2-0.2,1.8-0.2c2.4,0,4.6,1,6.3,2.7v-2.4h-0.8v-0.3h6v0.3H58.2z
			 M53.7,15.4c-1.6-1.8-3.9-2.8-6.4-2.8c-3.2,0-3.9,5.7-3.9,8.5c0,2.2,0,8.4,3.9,8.4c2.4,0,4.7-1,6.4-2.9V15.4z"/>
		<path class="st0" d="M81,20.9c0,4-2.8,7.5-6.8,8.4c-0.6,0.1-1.2,0.2-1.8,0.2c-2.4,0-4.6-1-6.2-2.7v14.9H67V42h-6v-0.3h0.7V12.6H61
			v-0.3h6v0.3h-0.8V15c1.6-1.7,3.9-2.7,6.2-2.7c0.7,0,1.3,0.1,2,0.2C78.3,13.5,80.9,17,81,20.9z M76.3,21.3c0-2.2-0.3-8.8-3.9-8.8
			c-2.4,0-4.7,1-6.2,2.8v11c1.6,1.8,3.9,2.8,6.2,2.8C75.6,29.2,76.4,23.9,76.3,21.3L76.3,21.3z"/>
		<path class="st0" d="M101.2,29.4v0.3h-5.7v-0.3h0.8V18.7c-0.1-1.5-0.8-5.6-3.4-5.6c-1.9,0-3.8,0.8-5.1,2.2v14.1h0.7v0.3h-5.9v-0.3
			h0.7V0.3h-0.7V0h5.9v0.3h-0.7V15c1.3-1.4,3.2-2.2,5.1-2.1c3.3,0,6.2,2.2,7.1,5.3c0.2,0.5,0.3,1,0.3,1.6c0,0.2,0.1,0.5,0.1,9.6
			L101.2,29.4z"/>
		<path class="st0" d="M108.3,29.4h0.8v0.3H103v-0.3h0.8V12.6H103v-0.4h6.1v0.4h-0.8L108.3,29.4z M103.8,7.5
			c0.1-1.2,1.2-2.2,2.4-2.1c1.1,0.1,2,1,2.1,2.1c-0.1,1.2-1.2,2.2-2.4,2.1C104.8,9.5,103.9,8.6,103.8,7.5z"/>
		<path class="st0" d="M125.4,26h0.3v1.6h-0.3V27c-1.6,1.6-3.7,2.5-5.9,2.6c-0.8,0-1.7,0-2.4-0.2c-3.9-1-6.6-4.5-6.6-8.5
			c0-4.1,2.9-7.7,6.9-8.6l0,0c0.6-0.1,1.2-0.2,1.8-0.2c2.1,0,4.1,0.7,5.7,2.1c0.1,0,0.1,0.1,0.2,0.2c0.2,0.2,0.3,0.4,0.4,0.6
			c0.2,0.3,0.3,0.6,0.3,1c0,1.3-1,2.3-2.3,2.2c0,0,0,0,0,0c-1.2,0-2.2-1-2.2-2.2c0,0,0,0,0-0.1c0-1.2,0.9-2.3,2.2-2.3c0,0,0,0,0.1,0
			h0.1c-1.3-0.8-2.9-1.3-4.4-1.3c-3.9,0-3.8,8.2-3.8,9.7c0,2.1,0.8,7.1,3.8,7.1c2.4,0,4.7-1,6.3-2.8L125.4,26z"/>
		<path class="st0" d="M137.1,29.2c-0.9,0.4-1.8,0.5-2.8,0.5c-2.1,0-4.1-0.7-5.7-2.1c-0.6-0.5-0.9-1.1-0.9-1.9c0-1.3,1-2.3,2.3-2.3
			c1.3,0,2.3,1,2.3,2.3s-1,2.3-2.3,2.3c0,0,0,0,0,0c-0.1,0-0.3,0-0.4,0c1.4,0.9,3,1.4,4.6,1.4c1.9,0,4.4-1,3.7-3.4
			c-0.3-0.6-0.8-1.1-1.4-1.4l-5-2.1c-2.2-0.8-3.7-2.9-3.8-5.2c0.2-3.1,3.5-5,6.5-5c2-0.1,4,0.8,5.4,2.3V14h0.4v1.7h-0.4V15
			c-1.3-1.7-3.3-2.6-5.4-2.6c-0.7,0-1.4,0.1-2,0.3c-1.3,0.4-2,1.8-1.6,3.1c0.3,0.6,0.8,1.1,1.3,1.4c0.3,0.2,0.7,0.3,1,0.5l4.4,1.9
			c1.9,0.8,3.2,2.5,3.5,4.5C140.8,26.4,139.4,28.1,137.1,29.2z"/>
		<path class="st0" d="M155.3,5.3h8.1c7.7,0,13,5.3,13,12.2v0.1c0,6.9-5.3,12.2-13,12.2h-8.1V5.3z M157.1,7V28h6.3
			c6.8,0,11.1-4.6,11.1-10.5v-0.1c0-5.8-4.3-10.6-11.1-10.6L157.1,7z"/>
		<path class="st0" d="M178.4,20.8L178.4,20.8c0-5.2,3.6-9.4,8.4-9.4c5,0,8.2,4.1,8.2,9.3c0,0.2,0,0.5,0,0.7h-14.8
			c0.3,4.4,3.5,7,7,7c2.4,0,4.6-1,6.1-2.8l1.2,1c-1.8,2.2-4.5,3.4-7.4,3.4C182.4,30.1,178.4,26.4,178.4,20.8z M193.1,20
			c-0.3-3.6-2.3-6.9-6.4-6.9c-3.5,0-6.3,3-6.6,6.9H193.1z"/>
		<path class="st0" d="M195.8,27.5l1-1.4c1.8,1.5,4.1,2.3,6.4,2.3c2.4,0,4.3-1.3,4.3-3.4V25c0-2.1-2.2-2.8-4.7-3.6
			c-2.9-0.8-6.1-1.7-6.1-4.9v-0.1c0-2.9,2.4-4.9,5.9-4.9c2.3,0,4.4,0.7,6.3,1.9L208,15c-1.6-1.1-3.5-1.7-5.5-1.8c-2.5,0-4,1.3-4,3.1
			v0.1c0,2,2.4,2.7,5,3.5c2.9,0.8,5.9,1.9,5.9,5v0.1c0,3.2-2.7,5.2-6.1,5.2C200.5,30.1,197.9,29.2,195.8,27.5z"/>
		<path class="st0" d="M212.2,4.9h2.1v2.3h-2.1V4.9z M212.4,11.9h1.7v17.8h-1.7V11.9z"/>
		<path class="st0" d="M217.8,32.7l1-1.4c2,1.6,4.6,2.5,7.2,2.5c4.1,0,7-2.3,7-6.9v-2.6c-1.6,2.6-4.4,4.1-7.4,4.1
			c-4.7,0.1-8.5-3.7-8.6-8.3c0,0,0-0.1,0-0.1l0,0c0-4.7,3.8-8.5,8.4-8.5c0,0,0.1,0,0.1,0c3,0,5.8,1.5,7.4,4v-3.6h1.7V27
			c0.1,2.2-0.7,4.4-2.3,6c-1.8,1.6-4.1,2.5-6.5,2.4C223.1,35.4,220.2,34.4,217.8,32.7z M233.2,20L233.2,20c0-4.2-3.6-6.9-7.4-6.9
			c-3.6-0.2-6.7,2.6-6.9,6.2c0,0.2,0,0.3,0,0.5V20c0,3.7,3,6.8,6.7,6.8c0.1,0,0.1,0,0.2,0C229.5,26.8,233.2,24,233.2,20z"/>
		<path class="st0" d="M238.6,11.9h1.7v3.3c1.2-2.4,3.7-3.8,6.4-3.7c4.5,0,7.1,3,7.1,7.3v10.9h-1.7V19.1c0-3.7-2-6.1-5.7-6.1
			c-3.4-0.1-6.1,2.6-6.2,6c0,0.1,0,0.2,0,0.4v10.3h-1.7V11.9z"/>
		<path class="st0" d="M257.5,4.9h2.1v2.3h-2.1V4.9z M257.7,11.9h1.7v17.8h-1.7V11.9z"/>
		<path class="st0" d="M263.5,11.9h1.7v3.3c1.2-2.4,3.7-3.8,6.4-3.7c4.5,0,7.1,3,7.1,7.3v10.9h-1.7V19.1c0-3.7-2-6.1-5.7-6.1
			c-3.4-0.1-6.1,2.6-6.2,6c0,0.1,0,0.2,0,0.4v10.3h-1.7V11.9z"/>
		<path class="st0" d="M282,32.7l1-1.4c2,1.6,4.6,2.5,7.2,2.5c4,0,7-2.3,7-6.9v-2.6c-1.6,2.6-4.4,4.1-7.4,4.1
			c-4.7,0.1-8.5-3.6-8.6-8.3c0,0,0-0.1,0-0.1l0,0c0-4.7,3.8-8.5,8.4-8.5c0,0,0.1,0,0.1,0c3,0,5.8,1.5,7.4,4v-3.6h1.7V27
			c0.1,2.2-0.7,4.4-2.3,6c-1.8,1.6-4.1,2.5-6.5,2.4C287.2,35.4,284.3,34.4,282,32.7z M297.3,20L297.3,20c0-4.2-3.6-6.9-7.4-6.9
			c-3.6-0.2-6.7,2.6-6.9,6.2c0,0.2,0,0.4,0,0.5V20c0,3.7,3,6.8,6.7,6.8c0.1,0,0.1,0,0.2,0C293.6,26.8,297.3,24,297.3,20z"/>
	</g>
</g>
</svg>
