<?xml version="1.0" encoding="utf-8"?>
<!-- Generator: Adobe Illustrator 26.0.2, SVG Export Plug-In . SVG Version: 6.00 Build 0)  -->
<svg version="1.1" id="Layer_1" xmlns="http://www.w3.org/2000/svg" xmlns:xlink="http://www.w3.org/1999/xlink" x="0px" y="0px"
	 viewBox="0 0 298.9 35.4" style="enable-background:new 0 0 298.9 35.4;" xml:space="preserve">
<style type="text/css">
	.st0{fill:#272827;}
</style>
<g id="Layer_2_00000181772705954635185020000001151048928781086088_">
	<g id="Layer_1-2">
		<path class="st0" d="M42.4,0.2v0.3h-0.8L31,29.3L23.2,7.7l-8.1,22.1L4.6,0.5H3.8V0.1H11v0.4h-0.9l7.2,22.3L23,7.1l-2.3-6.6h-1.2
			V0.1h7.2v0.4h-0.8v0.1l7.2,22.2l8.1-22.3h-0.8V0.2H42.4z M30.9,29.7l0.1-0.4l0.2,0.4H30.9z"/>
		<path class="st0" d="M51.1,21.2h-7.9c0,2.3,0.2,8.3,4,8.3c2.9,0,5.6-1.5,7.1-4h0.4c-1.6,2.7-4.4,4.3-7.5,4.3
			c-0.7,0-1.4-0.1-2.1-0.2c-3.9-0.9-6.7-4.5-6.7-8.5c0.1-4.3,3.1-7.9,7.3-8.6c0.2,0,0.3,0,0.5,0c0.3,0,0.6-0.1,1-0.1
			c0.5,0,1,0,1.5,0.1c3.3,0.6,6,3.1,6.9,6.3c0.2,0.8,0.3,1.6,0.3,2.5L51.1,21.2z M51.1,20.9c0-2.2-0.4-4.3-1.2-6.3
			c-0.4-1-1.2-1.8-2.3-2h-0.8c-1.8,0.2-2.6,2.8-2.6,2.8c-0.5,1.8-0.8,3.7-0.9,5.5L51.1,20.9z"/>
		<path class="st0" d="M77.4,21.2c0,4-2.7,7.5-6.6,8.4v0.1h-0.4c-0.5,0.1-1.1,0.2-1.6,0.2c-2.4,0-4.7-0.9-6.3-2.7v2.3h0.7v0.3h-5.9
			v-0.3h0.7V0.3h-0.7V0h5.9v0.3h-0.7v15c1.6-1.7,3.9-2.7,6.3-2.7c0.5,0,0.9,0.1,1.4,0.1l0.3,0.1C74.6,13.7,77.4,17.2,77.4,21.2z
			 M68.9,12.9c-2.4,0-4.7,1-6.3,2.8v11.1c1.6,1.8,3.9,2.8,6.3,2.8c2.8,0,3.9-4.9,3.9-8.4C72.8,20.4,72.7,12.9,68.9,12.9z"/>
		<path class="st0" d="M97.2,5.3h8.2c7.7,0,13,5.3,13,12.2v0.1c0,6.9-5.3,12.2-13,12.2h-8.2V5.3z M99,7v21.1h6.3
			c6.8,0,11.1-4.6,11.1-10.5v-0.1c0-5.8-4.3-10.6-11.1-10.6L99,7z"/>
		<path class="st0" d="M120.3,20.9L120.3,20.9c0-5.2,3.6-9.4,8.5-9.4c5,0,8.2,4.1,8.2,9.3c0,0.2,0,0.5,0,0.7h-14.8
			c0.3,4.4,3.5,7,7,7c2.4,0,4.6-1,6.1-2.8l1.2,1c-1.8,2.2-4.5,3.4-7.4,3.4C124.3,30.2,120.3,26.5,120.3,20.9z M135.1,20
			c-0.3-3.6-2.3-6.9-6.4-6.9c-3.5,0-6.3,3-6.6,6.9H135.1z"/>
		<path class="st0" d="M136.6,12h2l6.7,15.9l6.8-15.9h1.9l-8,18h-1.5L136.6,12z"/>
		<path class="st0" d="M153.9,20.9L153.9,20.9c0-5.2,3.6-9.4,8.4-9.4c5,0,8.2,4.1,8.2,9.3c0,0.2,0,0.5,0,0.7h-14.8
			c0.3,4.4,3.5,7,7,7c2.3,0,4.6-1,6.1-2.8l1.2,1c-1.8,2.2-4.5,3.4-7.4,3.4C157.9,30.2,153.9,26.5,153.9,20.9z M168.6,20
			c-0.3-3.6-2.3-6.9-6.4-6.9c-3.5,0-6.3,3-6.6,6.9H168.6z"/>
		<path class="st0" d="M173.1,4.3h1.7v25.5h-1.7V4.3z"/>
		<path class="st0" d="M177.8,20.9L177.8,20.9c-0.1-5.2,4-9.3,9.1-9.4c0,0,0.1,0,0.1,0c5,0,9.1,4.1,9.1,9.1c0,0.1,0,0.1,0,0.2v0.1
			c0.1,5.1-4,9.3-9.1,9.3c0,0-0.1,0-0.1,0c-5,0-9.1-4.1-9.1-9.1C177.8,21,177.8,21,177.8,20.9z M194.2,20.9L194.2,20.9
			c0.1-4.2-3.1-7.6-7.2-7.8c-0.1,0-0.1,0-0.2,0c-4.1,0-7.3,3.4-7.3,7.4c0,0.1,0,0.2,0,0.2v0.1c-0.1,4.1,3.1,7.6,7.2,7.7
			c0.1,0,0.1,0,0.2,0c4.1-0.1,7.3-3.4,7.2-7.5C194.2,21,194.2,21,194.2,20.9L194.2,20.9z"/>
		<path class="st0" d="M198.7,12h1.7v4c1.5-2.7,4.3-4.3,7.3-4.4c4.9,0.1,8.8,4.1,8.7,9c0,0.1,0,0.2,0,0.2v0.1
			c0.2,4.9-3.7,9.1-8.6,9.3c0,0,0,0-0.1,0c-3,0-5.8-1.7-7.3-4.3v9.4h-1.7L198.7,12z M214.6,21L214.6,21c0-4.8-3.2-7.8-7-7.8
			c-4.1,0.1-7.4,3.5-7.3,7.6c0,0,0,0,0,0.1V21c-0.1,4.1,3.1,7.5,7.2,7.6c0,0,0.1,0,0.1,0C211.5,28.5,214.6,25.7,214.6,21L214.6,21z"
			/>
		<path class="st0" d="M219.1,12h1.7v3.2c1.1-2.2,3.4-3.6,5.9-3.6c2.6-0.1,5,1.5,6,3.8c1.2-2.4,3.7-3.9,6.4-3.8c4.2,0,6.9,3,6.9,7.4
			v10.8h-1.7V19.2c0-3.9-2-6.1-5.3-6.1c-3,0-5.6,2.3-5.6,6.3v10.4h-1.7V19.1c0-3.7-2-6-5.2-6s-5.7,2.8-5.7,6.4v10.3h-1.7L219.1,12z"
			/>
		<path class="st0" d="M248.4,20.9L248.4,20.9c0-5.2,3.6-9.4,8.4-9.4c5,0,8.2,4.1,8.2,9.3c0,0.2,0,0.5,0,0.7h-14.8c0,3.9,3.1,7,7,7
			c2.4,0,4.6-1,6.1-2.8l1.2,1c-1.8,2.2-4.5,3.4-7.4,3.4C252.4,30.2,248.4,26.5,248.4,20.9z M263.2,20c-0.3-3.6-2.3-6.9-6.4-6.9
			c-3.5,0-6.3,3-6.6,6.9H263.2z"/>
		<path class="st0" d="M267.4,12h1.7v3.3c1.2-2.4,3.7-3.8,6.4-3.7c4.5,0,7.1,3,7.1,7.3v10.9H281V19.2c0-3.7-2-6.1-5.7-6.1
			c-3.4-0.1-6.1,2.6-6.2,6c0,0.1,0,0.3,0,0.4v10.3h-1.7V12z"/>
		<path class="st0" d="M287.1,25.2V13.5h-2.6V12h2.6V6.2h1.7V12h6.2v1.6h-6.2V25c0,2.5,1.5,3.5,3.6,3.5c0.9,0,1.8-0.2,2.6-0.6v1.6
			c-0.9,0.4-1.9,0.6-2.9,0.6C289.3,30.1,287.1,28.6,287.1,25.2z"/>
	</g>
</g>
</svg>
