<?xml version="1.0" encoding="UTF-8"?>
<svg id="Layer_2" data-name="Layer 2" xmlns="http://www.w3.org/2000/svg" viewBox="0 0 323.1 96.8">
  <g id="Layer_1-2" data-name="Layer 1">
    <g id="Layer_3" data-name="Layer 3">
      <path d="m118.8,50.5v5.1h-9.3V.3h9.2v20.9c1.4-.9,2.4-1.6,3.5-2.2,2.3-1.3,4.6-2.2,7.3-2.4,3.5-.2,6.9.3,10,2,4.1,2.3,7,5.8,8.9,10.1.4,1,1.1,1.9.9,3.1-.2,1.2-.3,2.5.8,3.6.2.2.1.8,0,1.3-.9,4.5-1.5,9.2-4.7,12.8-2.9,3.2-6.3,5.8-10.8,6.2-2.8,2-5.6.5-8.4-.1-2.8-.6-5.2-2-7.4-5.1h0Zm14.3-25.2c-11.1-1.3-15.2,5.1-14.2,14.1.6,1.2,1.2,2.1,1.7,3.1.9,1.8,2.2,3.1,4.1,3.8,2,.9,4,1.9,6.2,1.4,1.8-.4,3.7-1,5.1-2.1,1.5-1.1,3-2.8,3.5-4.5.7-2.3,2.2-4.9.3-7.5-.5-4.1-3.5-6.3-6.7-8.3h0Zm104,8.9c6.3,7.2,12.4,14.2,18.6,21.2h-12.6c-4.8-5.7-9.7-11.5-14.9-17.7-.5,6.2-.1,11.9-.3,17.7h-9.3V.2h9.3v30.5c1-.5,1.7-.7,2.1-1.1l12.1-12.1h11.6c-5.4,5.6-10.9,11.1-16.6,16.7h0Zm-60.6-2.1c.4-.8.8-1.6,1.4-2.7-1-1.3-1.8-3.2-3.2-4-1.7-.9-4-.9-5.5-1.2-3,1.6-5.8,2.5-6.2,5.9-2.6,1.4-4.8-1-7.3-.6-.4.1-1-.9-1.4-1.4,1.5-5.3,4.8-8.8,9.6-10.6s11.2-1.6,16.5,1.1c3.6,1.8,6.1,6.9,6.1,10v22.1c0,1.5.4,2.9.7,4.7-1.2.6-2.8.1-4.3.2-1.6.1-3.1,0-5,0v-3.4c-2.9.8-4.6,3-7.4,3.6-2.6.5-4.7.8-7.2-.1-1.4-.5-2.7-1.1-4.1-1.7-3.8-1.5-4.8-4.9-5.6-8.1-.7-3,.6-6,2.7-8.3,2.3-2.7,5.2-4.1,8.9-4.8,3.8-.7,7.5-.2,11.3-.7Zm1.1,7c-4.9.1-9.6-.7-13.8,2.3-.3,1.2-.7,2.7-1,4,3.9,3.7,5.9,4.1,10.5,2,3.5-1.5,4.5-3.4,4.3-8.3Zm23.5,16.4h-9.4V17.5h9.4v3.4c3.8-3,7.9-4.4,12-4.3v10.2c-2.4-2.2-4.7.8-7.1,0-1.1,1.3-2.2,2.6-3.4,3.9-1.8,2.9-1.4,6.3-1.4,9.7-.1,5-.1,9.8-.1,15.1Zm-132.2-20.3c-.4-.6-.9-1.2-1.6-2.1,1.7-1.6,2.8-3.5,5.1-4.4.7-.3,1.2-1.2,1.9-1.8,2.1-2.1,4.2-4.3,6.4-6.4,7.1-6.8,14.2-13.5,21.5-20.5v10.2c-10.8,8.1-21.8,16.4-33.3,25Zm-.7,12.5l1.6-1.6c5.8,0,11.9-.7,17.8.2,4.8.7,9.6.2,14.5.8v8.7c-11.2-2.7-22.3-5.3-33.9-8.1Zm29.8-12.2c-8.5,2.2-17.1,3.8-25.8,5.7v-2.3c3-1.3,6-2.7,9-4.1,4.6-2.2,9.1-4.5,13.7-6.7.6-.3,1.3-.2,2-.2.3,2.5.7,5,1.1,7.6Zm197.8-25.5l3.5,7,7.8,1.2-5.7,5.5,1.4,7.7-7-3.6-7,3.6,1.4-7.7-5.7-5.5,7.8-1.2,3.5-7Zm16,24l3.5,7.1,7.8,1.1-5.7,5.5,1.4,7.8-7-3.7-6.9,3.7,1.3-7.8-5.7-5.5,7.8-1.1,3.5-7.1Zm-31.6,0l3.5,7.1,7.8,1.1-5.6,5.5,1.3,7.8-7-3.7-7,3.7,1.4-7.8-5.6-5.5,7.7-1.1,3.5-7.1ZM26.9,10l3.4,7,7.8,1.2-5.6,5.5,1.3,7.7-6.9-3.6-7,3.6,1.3-7.7-5.6-5.5,7.8-1.2,3.5-7Zm16,24l3.4,7.1,7.8,1.1-5.6,5.5,1.3,7.8-6.9-3.7-7,3.7,1.3-7.8-5.6-5.5,7.8-1.1,3.5-7.1Zm-31.6,0l3.4,7.1,7.8,1.1-5.6,5.5,1.3,7.8-6.9-3.7-7,3.7,1.3-7.8-5.6-5.5,7.8-1.1,3.5-7.1Zm42.7,51.2h27.3v4.2h-27.3v-4.2Zm193,0h27.3v4.2h-27.3v-4.2Zm-137.5,2.7h-9.5v5.6h10.4l-.4,3h-13.5v-19.5h13.4v3h-9.9v4.8h9.5v3.1h0Zm4.1-10.9h3.7v16.5h9.9l-.4,3h-13.1v-19.5h-.1Zm19.9,0v19.5h-3.7v-19.5h3.7Zm8.9,3.1h-6.1v-3h15.8v3h-6.1v16.5h-3.7l.1-16.5h0Zm25.4,7.8h-9.5v5.6h10.4l-.4,3h-13.5v-19.5h13.4v3h-9.9v4.8h9.5v3.1h0Zm11.2-10.9h7.8c4,0,6.8,2.3,6.8,5.9,0,4.1-3.1,6.1-6.9,6.1h-4.1v7.5h-3.6v-19.5Zm3.7,9.1h3.7c2.2,0,3.6-.9,3.6-3s-1.5-3-3.5-3h-3.8v6Zm17.8,2.4v8.1h-3.6v-19.5h8.2c4.2,0,6.4,2.3,6.4,5.3,0,2.6-1.4,4.1-3,4.6,1.2.4,2.6,1.4,2.6,4.9v.9c0,1.3,0,2.9.3,3.8h-3.4c-.4-.9-.4-2.3-.4-4.3v-.3c0-2.4-.6-3.4-3.9-3.4l-3.2-.1h0Zm0-3h3.8c2.5,0,3.6-1,3.6-2.8s-1.1-2.7-3.4-2.7h-3.9v5.5h-.1Zm32.7,1.2c0,5.4-3.2,10.1-9.4,10.1s-9.2-4.4-9.2-10,3.4-10,9.5-10c5.5,0,9.1,4,9.1,9.9h0Zm-14.9,0c0,3.9,1.8,7.1,5.6,7.1,4,0,5.5-3.3,5.5-7.1s-1.7-7-5.6-7c-3.8.1-5.5,3.1-5.5,7Z"/>
    </g>
  </g>
</svg>