<?xml version="1.0" encoding="UTF-8"?>
<svg id="Layer_2" data-name="Layer 2" xmlns="http://www.w3.org/2000/svg" viewBox="0 0 250.85 96.8">
  <defs>
    <style>
      .cls-1 {
        isolation: isolate;
        opacity: .5;
      }
    </style>
  </defs>
  <g id="Layer_1-2" data-name="Layer 1">
    <g id="Layer_2-2" data-name="Layer 2">
      <path d="m0,31.96c1.42-4.35,2.33-9,4.35-12.95C14.77-1.01,43.7-3.74,57.35,13.76c-2.33,2.43-4.65,4.86-6.88,7.18-13.05-10.42-24.98-10.92-33.68-1.52-8.4,9.1-8.19,25.09.3,33.89,8.7,9.1,20.94,8.4,33.38-1.92l7.08,7.08c-11.53,15.58-41.47,17.4-53.2-5.16-2.12-4.05-2.93-8.7-4.25-13.05C0,37.53,0,34.69,0,31.96Zm248.63,37.53h-10.72v-21.65c0-1.82.1-3.74,0-5.56-.3-6.37-2.83-9.51-7.59-9.71-6.47-.2-11.13,3.24-11.63,9.31-.4,6.07-.2,12.24-.3,18.31v9.1h-10.82V0h11.13v25.09c.71-.2,1.01-.3,1.31-.51,13.45-6.47,24.48-1.31,28.12,13.15,0,.2.3.3.4.51.1,10.42.1,20.84.1,31.26ZM75.66,0c-.1,1.42-.3,2.73-.3,4.15v65.04h-10.82V0h11.13Zm19.72,23.16v21.85c0,1.92-.1,3.94.1,5.87.61,5.87,3.14,8.7,7.69,8.9,5.87.1,10.72-3.34,11.23-8.6.51-5.97.3-12.04.4-18v-10.01h10.52v45.82c-5.26,1.52-9.91.81-11.23-1.82-4.96,2.83-10.32,3.94-15.98,2.53-7.99-2.02-13.05-8.09-13.45-17.6s-.1-19.12-.1-28.93h10.82Zm99.43,31.66c2.33,2.53,4.65,4.96,6.98,7.49-7.28,9.61-24.17,10.72-34.29,2.02-10.11-8.8-10.72-25.89-1.31-35.5,9.51-9.61,26.7-9.2,35.6.81-2.33,2.43-4.65,4.75-7.18,7.38-3.74-3.84-8.7-5.56-13.96-4.15-2.83.71-5.77,2.63-7.69,4.75-4.45,5.16-3.54,13.66,1.31,18.31,5.46,5.36,13.15,4.96,20.53-1.11h0Zm-63.93-22.25v-9.61h7.38V7.18h10.62v15.58h8.7v9.91h-8.5v36.62h-10.72v-36.31c-2.63-.1-5.06-.3-7.49-.4Z"/>
      <path class="cls-1" d="m183.38,38.34c4.55,0,7.79,3.34,7.79,7.89-.1,4.35-3.44,7.79-7.59,7.89-4.35.1-7.89-3.34-7.89-7.89-.1-4.65,3.14-7.89,7.69-7.89Z"/>
      <path d="m4.05,85.98H.2v-1.92h10.11v1.92h-3.94v10.62h-2.33v-10.62Zm18.91,4.35c0,3.44-2.02,6.47-6.07,6.47s-5.87-2.83-5.87-6.47,2.23-6.47,6.07-6.47c3.64,0,5.87,2.63,5.87,6.47Zm-9.51,0c0,2.53,1.21,4.55,3.54,4.55,2.63,0,3.54-2.12,3.54-4.55s-1.11-4.45-3.54-4.45c-2.53-.1-3.54,1.92-3.54,4.45Zm11.94-6.27h5.06c2.63,0,4.35,1.42,4.35,3.84,0,2.63-1.92,3.94-4.45,3.94h-2.63v4.86h-2.33v-12.64Zm2.33,5.77h2.33c1.42,0,2.33-.61,2.33-1.92,0-1.42-1.01-1.92-2.23-1.92h-2.43v3.84h0Zm13.86-5.77h4.86c3.64,0,5.97,2.43,5.97,6.17s-2.33,6.37-6.07,6.37h-4.75v-12.54h0Zm2.33,10.62h2.23c2.63,0,3.74-1.92,3.74-4.45,0-2.23-1.11-4.25-3.74-4.25h-2.23v8.7h0Zm19.22-3.64h-6.07v3.64h6.68l-.3,1.92h-8.7v-12.54h8.6v1.92h-6.27v3.03h6.07v2.02Zm6.17,5.56l-4.45-12.54h2.53l2.02,5.97c.61,1.82,1.11,3.44,1.42,4.65.3-1.11.81-2.83,1.42-4.55l2.12-5.97h2.43l-4.65,12.54-2.83-.1Zm17.4-5.56h-6.07v3.64h6.68l-.3,1.92h-8.7v-12.54h8.6v1.92h-6.37v3.03h6.07v2.02h.1Zm2.73-6.98h2.33v10.62h6.37l-.3,1.92h-8.4v-12.54Zm21.44,6.27c0,3.44-2.02,6.47-6.07,6.47s-5.87-2.83-5.87-6.47,2.23-6.47,6.07-6.47c3.54,0,5.87,2.63,5.87,6.47Zm-9.61,0c0,2.53,1.21,4.55,3.54,4.55,2.63,0,3.54-2.12,3.54-4.55s-1.11-4.45-3.54-4.45c-2.43-.1-3.54,1.92-3.54,4.45Zm12.04-6.27h5.06c2.63,0,4.35,1.42,4.35,3.84,0,2.63-1.92,3.94-4.45,3.94h-2.63v4.86h-2.33v-12.64Zm2.33,5.77h2.33c1.42,0,2.33-.61,2.33-1.92,0-1.42-1.01-1.92-2.23-1.92h-2.43v3.84h0Zm17.5,1.21h-6.07v3.64h6.68l-.3,1.92h-8.6v-12.54h8.6v1.92h-6.37v3.03h6.07v2.02Zm5.06.4v5.16h-2.33v-12.54h5.26c2.63,0,4.15,1.42,4.15,3.44,0,1.62-.91,2.63-1.92,2.93.81.2,1.72.91,1.72,3.14v.61c0,.81,0,1.82.2,2.43h-2.23c-.2-.51-.2-1.52-.2-2.73v-.2c0-1.52-.4-2.23-2.53-2.23h-2.12Zm0-1.92h2.43c1.62,0,2.33-.61,2.33-1.82,0-1.11-.71-1.72-2.23-1.72h-2.53v3.54Zm11.13,3.44c.3,1.31,1.21,2.02,2.83,2.02s2.33-.71,2.33-1.72c0-1.11-.61-1.62-2.93-2.12-3.24-.81-4.15-1.92-4.15-3.64,0-2.12,1.52-3.54,4.45-3.54,3.24,0,4.45,1.82,4.65,3.54h-2.33c-.2-.91-.71-1.72-2.33-1.72-1.21,0-1.92.51-1.92,1.52s.61,1.42,2.63,1.82c3.64.91,4.35,2.23,4.35,3.94,0,2.23-1.62,3.74-4.86,3.74s-4.75-1.62-5.06-3.74l2.33-.1h0Zm25.69-2.63c0,3.44-2.02,6.47-6.07,6.47s-5.87-2.83-5.87-6.47,2.23-6.47,6.07-6.47c3.54,0,5.87,2.63,5.87,6.47Zm-9.61,0c0,2.53,1.21,4.55,3.54,4.55,2.63,0,3.54-2.12,3.54-4.55s-1.11-4.45-3.54-4.45c-2.43-.1-3.54,1.92-3.54,4.45Zm14.26,1.11v5.16h-2.23v-12.54h5.26c2.63,0,4.15,1.42,4.15,3.44,0,1.62-.91,2.63-1.92,2.93.81.2,1.72.91,1.72,3.14v.61c0,.81,0,1.82.2,2.43h-2.33c-.2-.51-.2-1.52-.2-2.73v-.2c0-1.52-.4-2.23-2.53-2.23h-2.12Zm0-1.92h2.43c1.62,0,2.33-.61,2.33-1.82,0-1.11-.71-1.72-2.23-1.72h-2.53v3.54Zm9.71-5.46h2.33v10.62h6.37l-.3,1.92h-8.4v-12.54Zm13.25,9.31l-1.11,3.14h-2.33l4.35-12.54h2.93l4.55,12.54h-2.53l-1.11-3.14h-4.75,0Zm4.15-1.92c-1.01-2.83-1.62-4.55-1.92-5.66-.3,1.21-1.01,3.24-1.82,5.66h3.74Zm5.87,5.16v-12.54h2.93c1.62,2.83,4.86,8.29,5.46,9.71-.1-1.42-.1-3.54-.1-5.56v-4.15h2.12v12.54h-2.83c-1.42-2.53-4.96-8.7-5.66-10.11.1,1.21.1,3.64.1,5.87v4.25h-2.02,0Zm13.66-12.54h4.86c3.64,0,5.97,2.43,5.97,6.17s-2.33,6.37-6.07,6.37h-4.65l-.1-12.54h0Zm2.43,10.62h2.23c2.63,0,3.74-1.92,3.74-4.45,0-2.23-1.11-4.25-3.74-4.25h-2.23v8.7h0Zm22.15-4.35c0,3.44-2.02,6.47-6.07,6.47s-5.87-2.83-5.87-6.47,2.23-6.47,6.07-6.47c3.64,0,5.87,2.63,5.87,6.47Zm-9.51,0c0,2.53,1.21,4.55,3.54,4.55,2.53,0,3.54-2.12,3.54-4.55s-1.11-4.45-3.54-4.45c-2.43-.1-3.54,1.92-3.54,4.45Z"/>
    </g>
  </g>
</svg>