<?xml version="1.0" encoding="UTF-8"?>
<svg id="Layer_2" data-name="Layer 2" xmlns="http://www.w3.org/2000/svg" viewBox="0 0 258 96.8">
  <g id="Layer_1-2" data-name="Layer 1">
    <g>
      <g>
        <g>
          <path d="m75.78,11.59h13.02c10.56,0,17.74,7.08,17.74,16.41v.1c0,9.23-7.08,16.41-17.74,16.41h-13.02V11.59m13.02,26.05c6.05,0,10.05-3.9,10.05-9.64v-.1c0-5.74-3.9-9.84-10.05-9.84h-5.54v19.69l5.54-.1"/>
          <path d="m112.9,11.59h25.23v6.36h-17.74v6.77h15.69v6.26h-15.89v6.87h18.25v6.36h-25.33l-.21-32.61"/>
          <path d="m142.43,39.48l4.41-5.02c3.08,2.36,6.26,3.9,10.05,3.9,3.08,0,4.82-1.23,4.82-3.08v-.1c0-1.95-1.23-2.87-6.77-4.2-6.77-1.74-11.18-3.59-11.18-10.05h0c0-5.84,4.82-9.84,11.79-9.84,4.82,0,9.02,1.44,12.41,4.2l-3.79,5.54c-2.87-2.05-5.84-3.18-8.72-3.18s-4.31,1.23-4.31,2.87v-.1c0,2.05,1.44,2.87,7.08,4.31,6.87,1.74,10.56,4.2,10.56,9.64v.1c0,6.46-5.02,10.15-12.2,10.15-5.02-.1-10.05-1.85-14.15-5.13"/>
          <path d="m175.55,11.59h7.38v32.71h-7.38V11.59"/>
          <path d="m189.81,27.89c0-9.43,7.38-17.02,17.53-17.02,6.05,0,9.54,1.64,13.02,4.61l-4.61,5.54c-2.56-2.05-4.82-3.28-8.72-3.28-5.43,0-9.54,4.61-9.54,10.15v.1c0,6.05,4.2,10.56,10.15,10.56,2.67,0,5.02-.62,6.97-2.05v-4.51h-7.49v-6.26h14.46v14.05c-3.59,2.87-8.1,5.23-14.36,5.23-10.46-.51-17.43-7.49-17.43-17.12"/>
          <path d="m228.46,11.59h6.87l15.59,20V11.59h7.08v32.71h-6.26l-16.1-20.82v20.82h-7.08l-.1-32.71h0Z"/>
        </g>
        <g>
          <path d="m75.98,52.81h15.28c4.31,0,7.49,1.23,9.64,3.28,1.95,1.95,2.87,4.41,2.87,7.49v.1c0,5.23-2.87,8.61-7.08,10.15l8.1,11.59h-8.61l-7.08-10.56h-5.84v10.56h-7.49v-32.71l.21.1m14.77,15.69c3.69,0,5.54-1.95,5.54-4.61v-.1c0-3.08-2.05-4.61-5.74-4.61h-7.38v9.43h7.49"/>
          <path d="m109.82,71.27v-18.77h7.38v18.56c0,5.43,2.67,8,7.08,8s7.08-2.67,7.08-8v-18.56h7.38v18.46c0,9.84-5.74,14.66-14.56,14.66s-14.36-4.82-14.36-14.36"/>
          <path d="m143.97,80.7l4.41-5.02c3.08,2.36,6.26,3.9,10.05,3.9,3.08,0,4.82-1.23,4.82-3.08v-.1c0-1.95-1.23-2.87-6.77-4.2-6.77-1.74-11.18-3.59-11.18-10.05h0c0-5.84,4.82-9.84,11.79-9.84,4.82,0,9.02,1.44,12.41,4.2l-3.79,5.54c-2.87-2.05-5.84-3.18-8.72-3.18s-4.31,1.23-4.31,2.87v-.1c0,2.05,1.44,2.87,7.08,4.31,6.87,1.74,10.56,4.2,10.56,9.64v.1c0,6.46-5.02,10.15-12.2,10.15-4.92-.1-10.25-1.85-14.15-5.13"/>
          <path d="m176.68,52.81h7.38v13.02h13.43v-13.02h7.38v32.71h-7.38v-13.02h-13.43v13.02h-7.38v-32.71"/>
        </g>
      </g>
      <g>
        <path d="m28.92,60.4c-.1,0-.1-.21,0,0l-.82-.51-.21-.21-20.82-14.77s-.21,0-.21-.21l-.31-.31-.21-.21h-.41l-5.95-4.31,11.79,1.85c.51,0,.72.21,1.23.31.21,0,.51.21.51.21.51.21.72.31,1.03.51s.51.31.82.51c.21.21.51.31.51.51.21.21.31.21.51.31.31.21.51.31.51.51.51.51.82,1.03,1.33,1.33l9.33,13.23.21.21,1.13,1.03"/>
        <path d="m28.92,80.91l-.82-1.33-.21-.21L.1,39.89l5.95,4.31,1.03.72,20.92,14.77h.21l.72.51s.21,0,.21.21l.82-.72,28.1-19.79-28.3,39.58-.21.21-.62,1.23"/>
        <g>
          <path d="m28.92,53.73l-.82-1.33-.21-.21-6.87-9.54,6.87,1.33h.21l.82.21.82-.21,6.67-1.64-6.67,9.95v.21l-.82,1.23"/>
          <path d="m58.35,39.79l-8.82,1.23-3.38.62c-2.67.31-5.13,1.85-6.67,4l-9.33,13.43-.21.21-.82,1.23,1.03-1.03.21-.21-1.23,1.23,23.89-17.12,5.33-3.59"/>
        </g>
        <g>
          <path d="m33.43,11.79c0,7.79-13.43,11.79-13.43,20.1-.21,1.95.31,3.9,1.23,5.64,0,0-5.13-4.92-5.13-10.25s4.92-13.23,4.92-13.23c0,3.49,1.33,4.61,2.87,4.82h.21c1.64,0,2.46-1.23,2.46-2.97s-1.95-3.49-1.95-7.08c0-3.38,4.31-8.82,4.31-8.82,2.87,3.49,4.51,7.49,4.51,11.79"/>
          <path d="m29.74,40.09c-4.31,0-7.49-3.38-7.49-7.49v-.21c0-9.02,12.51-9.95,12.51-22.05.31.51,3.69,5.13,3.69,10.15,0,6.15-5.84,7.79-5.84,10.77,0,1.23.51,2.15,2.36,2.15.21,0,.31,0,.51-.21,3.38-1.33,5.64-4.61,5.84-8.31.1.21,1.74,15.18-11.59,15.18"/>
        </g>
        <g>
          <path d="m35.17,33.43c.21,0,.31,0,.51-.21-1.85.51-8.31,2.15-8.31-2.46,0-5.64,9.64-6.87,9.64-11.69,0-2.97-.72-5.95-2.36-8.61.31.51,3.69,5.13,3.69,10.15,0,6.15-5.84,7.79-5.84,10.77.41,1.03,1.03,2.05,2.67,2.05"/>
          <path d="m29.94,14.97c0,4.41-5.64,4-5.95,3.9h.51c1.64,0,2.46-1.23,2.46-2.97,0-1.85-1.95-3.49-1.95-7.08C25.02,5.43,29.33,0,29.33,0c-1.33,2.36-2.15,4.82-2.36,7.28-.1,4,2.97,4.41,2.97,7.69"/>
          <path d="m26.25,92.19l-3.9-2.67h4.82l1.64-4.82,1.33,4.82h4.82l-3.9,2.67,1.33,4.61-3.9-2.87-4,2.87,1.74-4.61"/>
          <path d="m46.66,92.19l-3.9-2.67h4.82l1.64-4.82,1.33,4.82h4.82l-3.9,2.67,1.33,4.61-3.9-2.87-4,2.87,1.74-4.61"/>
          <path d="m6.15,92.19l-3.9-2.67h4.82l1.64-4.82,1.33,4.82h4.82l-3.9,2.67,1.33,4.61-3.9-2.87-3.9,2.87,1.64-4.61"/>
        </g>
      </g>
    </g>
  </g>
</svg>