<?xml version="1.0" encoding="UTF-8"?>
<svg id="Layer_2" data-name="Layer 2" xmlns="http://www.w3.org/2000/svg" viewBox="0 0 223.13 96.8">
  <g id="Layer_1-2" data-name="Layer 1">
    <g id="Layer_1-3" data-name="Layer 1">
      <path d="m123.97,94.34v.2-.2Zm6.5-13.1l2.46,5.12,5.71.79-4.14,4.04.98,5.61-5.02-2.66-5.12,2.66.98-5.61-4.14-4.04,5.71-.79,2.56-5.12Zm18.02,0l2.46,5.12,5.71.79-4.14,4.04.98,5.61-5.02-2.66-5.12,2.66.98-5.61-4.14-4.04,5.71-.79,2.56-5.12Zm18.02,0l2.46,5.12,5.71.79-4.14,4.04.98,5.61-5.02-2.66-5.12,2.66.98-5.61-4.14-4.04,5.71-.79,2.56-5.12Zm18.02,0l2.46,5.12,5.71.79-4.14,4.04.98,5.61-5.02-2.66-5.12,2.66.98-5.61-4.14-4.04,5.71-.79,2.56-5.12Zm18.02,0l2.46,5.12,5.71.79-4.14,4.04.98,5.61-5.02-2.66-5.12,2.66.98-5.61-4.14-4.04,5.71-.79,2.56-5.12Zm-190.05-3.74h8.07c2.26,0,4.04.69,5.22,1.77.98.98,1.48,2.36,1.48,3.84v.1c0,2.95-1.77,4.73-4.23,5.51l4.83,6.79h-3.74l-4.43-6.3h-3.94v6.3h-3.15s-.1-18.02-.1-18.02Zm7.88,8.96c2.26,0,3.74-1.18,3.74-3.05v-.1c0-1.97-1.38-2.95-3.74-2.95h-4.63v6.01h4.63v.1Zm9.45,2.36c0-3.94,2.76-7.09,6.6-7.09,4.33,0,6.5,3.35,6.5,7.29,0,.3,0,.59-.1.89h-9.95c.3,2.26,1.87,3.45,3.94,3.45,1.58,0,2.56-.59,3.64-1.58l1.87,1.58c-1.28,1.58-3.05,2.56-5.61,2.56-3.84,0-6.89-2.86-6.89-7.09Zm10.04-.98c-.2-1.97-1.38-3.54-3.45-3.54s-3.25,1.48-3.54,3.54h6.99Zm4.33-5.91h3.35l3.64,10.04,3.64-9.95h3.25l-5.61,13.69h-2.76l-5.51-13.79h0Zm16.64-5.02h3.35v2.95h-3.35s0-2.95,0-2.95Zm.1,5.02h3.15v13.59h-3.15v-13.59Zm6.5,6.89c0-3.94,2.76-7.09,6.7-7.09,4.33,0,6.5,3.35,6.5,7.29,0,.3,0,.59-.1.89h-10.04c.3,2.26,1.87,3.45,3.94,3.45,1.58,0,2.56-.59,3.64-1.58l1.87,1.58c-1.28,1.58-3.05,2.56-5.51,2.56-3.94,0-6.99-2.86-6.99-7.09Zm10.04-.98c-.2-1.97-1.38-3.54-3.45-3.54s-3.25,1.48-3.54,3.54h6.99Zm4.43-5.91h3.25l2.76,9.35,3.05-9.35h2.56l3.05,9.35,2.76-9.35h3.15l-4.43,13.69h-2.86l-3.05-9.26-3.05,9.26h-2.76l-4.43-13.69Zm21.86,11.91l1.38-2.07c1.48,1.08,3.05,1.67,4.43,1.67s2.07-.59,2.07-1.48v-.1c0-1.08-1.48-1.38-3.05-1.87-1.97-.59-4.23-1.38-4.23-3.94v-.1c0-2.56,2.17-4.14,4.83-4.14,1.77,0,3.54.59,5.02,1.58l-1.28,2.17c-1.28-.79-2.76-1.28-3.84-1.28-1.18,0-1.87.59-1.87,1.38v.1c0,.98,1.48,1.48,3.05,1.97,1.97.59,4.23,1.48,4.23,3.94v.1c0,2.86-2.17,4.23-5.02,4.23-1.87-.2-3.94-.89-5.71-2.17ZM42.14,12.41c-10.34-6.3-19.4-6.4-26.88,0-6.79,5.91-8.96,15.85-5.22,24.22,3.54,7.98,12.21,13,20.78,11.91,9.16-1.08,14.67-6.11,16.25-15.16h-18.12v-7.48h25.21c3.25,9.65-2.46,22.25-12.41,27.37C25.4,61.84,4.33,51.7.59,33.78-3.06,16.05,10.73-.29,29.04,0c7.48.1,13.1,2.36,18.61,7.58-1.77,1.48-3.45,3.05-5.51,4.83Zm122.79,11.32q.59-3.15,7.68-2.26v11.23c0,7.68.1,15.26-.1,22.85-.2,8.86-5.22,14.97-13.29,16.54-8.37,1.67-16.15-2.26-19.79-10.34,2.07-.89,4.14-1.77,6.3-2.66,5.51,6.2,9.06,7.58,13.98,5.51,4.04-1.77,5.81-5.71,5.22-12.31-3.84,3.05-7.98,4.53-12.8,3.54-4.53-.98-8.07-3.35-10.73-6.99-5.12-6.79-4.53-16.94,1.28-23.24,6.01-6.4,14.08-7.29,22.25-1.87Zm-9.16,3.45c-5.71,0-10.24,4.92-10.24,11.03s4.73,11.13,10.34,11.03c5.51-.1,9.75-5.02,9.75-11.13s-4.23-11.03-9.85-10.93Zm-97.88,10.83c0-10.14,7.98-18.02,18.22-18.02s18.22,7.98,18.22,18.41c-.1,10.04-8.17,17.92-18.41,17.82-10.24-.1-18.02-7.98-18.02-18.22Zm28.46,0c-.1-6.3-4.43-10.83-10.34-10.83s-10.24,4.73-10.24,10.93,4.73,11.32,10.54,11.13c5.71-.2,10.14-5.12,10.04-11.23Zm47.86.39c-.1,10.14-7.98,17.92-18.32,17.82-10.14-.1-18.22-8.17-18.12-18.22s8.17-18.02,18.32-18.02,18.12,7.88,18.12,18.41Zm-18.12-11.23c-5.91,0-10.24,4.53-10.24,10.83s4.63,11.32,10.44,11.23c5.71-.1,10.24-5.22,10.24-11.23-.2-6.11-4.63-10.83-10.44-10.83Zm107.04,20.97c-5.61,7.68-14.48,10.04-22.65,6.4-7.58-3.35-11.72-11.62-10.14-19.99,1.67-8.76,7.88-14.28,16.35-14.67,7.58-.3,14.28,5.12,16.44,13.69-7.88,3.25-15.76,6.5-23.63,9.85,2.76,7.29,10.34,7.58,17.72.89,1.97,1.28,3.84,2.46,5.91,3.84Zm-24.81-10.63c5.51-2.26,10.63-4.43,15.85-6.6-1.58-4.14-6.89-4.43-9.75-3.45-4.04,1.58-6.4,5.22-6.11,10.04h0Zm-12.51,17.33h-7.39V1.97h7.39v52.88Z"/>
    </g>
  </g>
</svg>