<?xml version="1.0" encoding="UTF-8"?>
<svg id="Layer_2" data-name="Layer 2" xmlns="http://www.w3.org/2000/svg" viewBox="0 0 58.87 68">
  <defs>
    <style>
      .cls-1 {
        fill: #d0202d;
      }

      .cls-2 {
        fill: #272827;
      }
    </style>
  </defs>
  <g id="Layer_2-2" data-name="Layer 2">
    <g>
      <path class="cls-2" d="m45.56,24.01l-14.9-8.6c-.54-.31-1.2-.31-1.74,0l-14.9,8.6c-.54.31-.87.89-.87,1.51v17.21c0,.62.33,1.2.87,1.51l14.9,8.61c.54.31.87.88.87,1.51v12.95c0,.54-.59.88-1.05.61L.87,51.82c-.54-.31-.87-.89-.87-1.51V17.93c0-.62.33-1.2.87-1.51L28.91.23c.54-.31,1.2-.31,1.74,0l27.86,16.09c.47.27.47.95,0,1.22l-11.21,6.47c-.54.31-1.2.31-1.74,0"/>
      <path class="cls-1" d="m32.66,36.88v30.42c0,.54.59.88,1.05.61l11.21-6.47c.54-.31.87-.89.87-1.51v-15.46c0-.62.33-1.2.87-1.51l4.73-2.73c.54-.31.87-.89.87-1.51v-12.95c0-.54-.59-.88-1.05-.61l-17.69,10.21c-.54.31-.87.89-.87,1.51"/>
    </g>
  </g>
</svg>