<svg xmlns="http://www.w3.org/2000/svg" version="1.1" id="Layer_1" x="0" y="0" style="enable-background:new 0 0 211.1 200" xml:space="preserve" viewBox="0 50.6 211.5 97.5"><style>.st0{display:none}.st1{display:inline}</style><g id="Layer_4"><path d="m9.8 98.5 6.1-18.1L0 69.2h19.4l6.2-18.6 5.6 18.2h19.1L25.1 87.3l11.3-2.6 4.7 13.8-16.8-10.4zM63.2 73.8h-7.8v-3.9h20.4v3.9H68v21.3h-4.7V73.8zM76.2 81.5v-5.1h4.4c.1.5.1 2.2.1 3.5.9-2.3 2.9-3.9 6.1-3.9v4.4c-3.8 0-6.1 1.3-6.1 6.3v8.5h-4.5V81.5zM106 89.7v5.4h-4.4c-.1-.5-.1-1.6-.1-2.4-1.1 1.9-2.8 2.8-5.3 2.8-3.6 0-6.2-2.1-6.2-6.9V76.4h4.5v11.3c0 2.2.7 4.1 3.2 4.1 2.7 0 3.8-1.5 3.8-5.5v-9.9h4.5v13.3zM113.7 89.6c.4 1.7 1.8 2.6 3.9 2.6 2.2 0 3-.8 3-2.2 0-1.4-.8-2-3.8-2.7-5.9-1.4-6.9-3.2-6.9-5.8 0-2.7 1.9-5.5 7.3-5.5s7.3 3 7.5 5.6h-4.3c-.2-.9-.8-2.3-3.4-2.3-2 0-2.6.9-2.6 1.9 0 1.1.6 1.6 3.8 2.4 6.1 1.4 7 3.5 7 6.2 0 3.2-2.4 5.8-7.8 5.8s-7.8-2.7-8.2-6h4.5zM126.7 76.4h3v-5.2h4.5v5.2h3.8v3.5h-3.8v9.8c0 1.6.4 2.2 2 2.2.3 0 .9 0 1.3-.1V95c-.9.3-2.3.3-3.2.3-3.4 0-4.6-1.8-4.6-5V79.9h-3v-3.5zM145.7 93.2v9.1h-4.5V76.4h4.4c.1.5.1 1.7.1 2.5.9-1.6 2.6-3 5.7-3 4.2 0 7.5 3.6 7.5 9.3 0 6.6-3.6 10.3-8.2 10.3-2.8.1-4.3-1-5-2.3zm8.5-7.7c0-3.6-1.5-5.8-4.2-5.8-3.3 0-4.5 2.1-4.5 6.1 0 3.9 1.1 6.1 4.2 6.1 3 0 4.5-2.4 4.5-6.4zM162.6 68.5h4.5v4.4h-4.5v-4.4zm0 7.9h4.5v18.7h-4.5V76.4zM172.1 95.1V68.5h4.5v26.6h-4.5zM198.5 85.7c0 5.6-3.3 9.8-9.1 9.8-5.7 0-9-4.2-9-9.8 0-5.7 3.4-9.8 9.2-9.8 5.4.1 8.9 3.9 8.9 9.8zm-13.5.1c0 3.8 1.7 6.2 4.5 6.2s4.4-2.4 4.4-6.2c0-4-1.6-6.2-4.5-6.2-2.8 0-4.4 2.1-4.4 6.2zM200.2 76.4h3v-5.2h4.5v5.2h3.8v3.5h-3.8v9.8c0 1.6.4 2.2 2 2.2.3 0 .9 0 1.3-.1V95c-1 .3-2.3.3-3.2.3-3.4 0-4.6-1.8-4.6-5V79.9h-3v-3.5zM3.9 109.5v38.6h38.6v-38.6H3.9zm25.4 24.8 2.5 7.4-9-5.6-7.8 5.6 3.2-9.7-8.5-6h10.4l3.3-10 3 9.8h10.2l-13.5 9.9 6.2-1.4zM46 109.5v38.6h38.6v-38.6H46zm25.4 24.8 2.5 7.4-9-5.6-7.8 5.6 3.2-9.7-8.5-6h10.4l3.3-10 3 9.8h10.2l-13.5 9.9 6.2-1.4zM88.2 109.5v38.6h38.6v-38.6H88.2zm25.3 24.8 2.5 7.4-9-5.6-7.8 5.6 3.2-9.7-8.5-6h10.4l3.3-10 3 9.8H121l-13.5 9.9 6-1.4zM130.3 109.5v38.6h38.6v-38.6h-38.6zm25.3 24.8 2.5 7.4-9-5.6-7.8 5.6 3.2-9.7-8.5-6h10.4l3.3-10 3 9.8h10.2l-13.5 9.9 6.2-1.4zM172.4 109.5v38.6H211v-38.6h-38.6zm25.3 24.8 2.5 7.4-9-5.6-7.8 5.6 3.2-9.7-8.5-6h10.5l3.3-10 3 9.8h10.2l-13.5 9.9 6.1-1.4z"/></g></svg>