<svg id="Layer_1" data-name="Layer 1" xmlns="http://www.w3.org/2000/svg" viewBox="0 0 100 41.86"><defs><style>.cls-1{fill:#233a66;}.cls-2{fill:#2391dd;}</style></defs><title>Alaskan-Logo</title><path class="cls-1" d="M4.65,48.11H0L6.65,30.79h4.91l6.51,17.31h-4.7l-1.13-3H5.84ZM11,41.74L9.15,36.17,9,36.2,7.09,41.74h4Z" transform="translate(0 -29.07)"/><path class="cls-1" d="M63,42l6.37,5.89-0.14.19H64.08l-5-4.5v4.48H55v-19h4V40.49l0.24,0.15,3.64-4.23h6.16Z" transform="translate(0 -29.07)"/><path class="cls-1" d="M36.12,37.44l0.09-1h4.07V48.11h-4.1V46.74a4.89,4.89,0,0,1-4.33,1.8,5.75,5.75,0,0,1-4-2.16,6.71,6.71,0,0,1,.09-8.3C30.15,35.68,32.95,35.44,36.12,37.44Zm-2.55,2.19a2.65,2.65,0,0,0-2.76,2.68,2.74,2.74,0,0,0,5.48-.05A2.67,2.67,0,0,0,33.56,39.62Z" transform="translate(0 -29.07)"/><path class="cls-1" d="M80.59,36.4H84.5V48.08h-4c-0.25-.3,0-0.75-0.21-1.1-2.74,2.15-5.65,2.05-7.86-.22a6.73,6.73,0,0,1-.39-8.5c2.13-2.56,5.23-2.88,8.23-.86C80.57,37.14,80.3,36.74,80.59,36.4Zm-2.77,3.22a2.66,2.66,0,0,0-2.75,2.69A2.72,2.72,0,0,0,77.8,45a2.66,2.66,0,0,0,2.73-2.71A2.63,2.63,0,0,0,77.81,39.63Z" transform="translate(0 -29.07)"/><path class="cls-1" d="M87.61,36.41h4c0.26,0.41,0,.86.23,1.33a4.82,4.82,0,0,1,4.79-1.6,3.7,3.7,0,0,1,3.34,3.57c0.11,2.77,0,5.55,0,8.38H96a2.23,2.23,0,0,1-.1-1.21C95.83,44.93,96,43,95.8,41a1.74,1.74,0,0,0-1.22-1.66,2.21,2.21,0,0,0-2.22.49,2.31,2.31,0,0,0-.65,1.84c0,2.1,0,4.21,0,6.39h-4.1V36.41Z" transform="translate(0 -29.07)"/><path class="cls-1" d="M47.49,39.48a1.15,1.15,0,0,0,1,.95c0.54,0.12,1.07.25,1.6,0.39a3.27,3.27,0,0,1,2.68,2.69,3.74,3.74,0,0,1-1.42,3.83c-2.23,1.65-4.69,1.46-7.17.68a7.43,7.43,0,0,1-1-.45c-0.19-.09-0.36-0.21-0.57-0.34L44,44.52a9.38,9.38,0,0,0,2.73.9,5.11,5.11,0,0,0,.91,0,0.94,0.94,0,0,0,1-.86,0.92,0.92,0,0,0-.82-1c-0.56-.16-1.12-0.31-1.68-0.43-1.35-.3-2.42-0.9-2.66-2.4a3.75,3.75,0,0,1,1.86-4,8,8,0,0,1,6.24-.32,1.37,1.37,0,0,1,.78.39l-1.23,2.34C49.87,39,48.54,38,47.49,39.48Z" transform="translate(0 -29.07)"/><path class="cls-1" d="M23.91,48.11h-4v-19h4v19Z" transform="translate(0 -29.07)"/><path class="cls-2" d="M23.47,67a6.87,6.87,0,0,0,2.82.29,0.48,0.48,0,0,1,0,.62c-1.76.21-3.54-.4-5.48-0.06a17.71,17.71,0,0,0,1-5.17H16.69c-0.73,1-1.47,2.16-2.26,3.24a17.21,17.21,0,0,1-3.49,4,4.18,4.18,0,0,1-3.23,1,0.93,0.93,0,0,1-1-1.14C6.9,69,7.5,69.11,8,69.3a2.78,2.78,0,0,0,3.2-.93,47.33,47.33,0,0,0,5.48-7.32,104.62,104.62,0,0,1,6.55-9.16,2.59,2.59,0,0,0,.18-0.36,16.26,16.26,0,0,0-4.73.68,2.61,2.61,0,0,0-1.74,3.55c0.16,0.55.13,1-.5,1.15a0.85,0.85,0,0,1-1.11-.8A3.91,3.91,0,0,1,17,52.29a7.81,7.81,0,0,1,4-1.39,18.63,18.63,0,0,0,4.52-.72C24.82,55.85,23.94,61.34,23.47,67ZM23.25,53.32c-2.17,2.6-3.94,5.43-5.9,8.3h4.72C22.43,58.84,22.77,56.07,23.25,53.32Z" transform="translate(0 -29.07)"/><path class="cls-2" d="M63.12,59.35a21.92,21.92,0,0,1,3.7-2.85c0.76-.43,1.6-1.08,2.45-0.44s0.45,1.64.23,2.47C68.91,60.8,68,63,67.59,65.31a1.22,1.22,0,0,0,.22,1.29c1.12-.15,1.67-1.29,2.61-1.74,0.37,0.28.15,0.49,0,.69a11.27,11.27,0,0,1-2.72,2.15,1.44,1.44,0,0,1-1.64.14,1.58,1.58,0,0,1-.48-1.59,26.6,26.6,0,0,1,.92-3.92c0.32-1.15.67-2.28,1-3.43a1.76,1.76,0,0,0,.05-1.16,1.06,1.06,0,0,0-1.36,0,6.93,6.93,0,0,0-3.76,4.59c-0.39,1.75-.81,3.5-1.22,5.3a6.54,6.54,0,0,1-1.92,0l2.4-10.32c-1.41.12-2,1.17-2.85,1.66-0.33-1.16,3.25-3.4,4.83-3C63.75,57.09,63.1,58.11,63.12,59.35Z" transform="translate(0 -29.07)"/><path class="cls-2" d="M55.88,64.26a0.66,0.66,0,0,1,.38.54C54.73,66.22,53.16,67.6,51,68a1.88,1.88,0,0,1-2.45-1.69,8.28,8.28,0,0,1,.4-4.15A11.12,11.12,0,0,1,52.12,57a4.5,4.5,0,0,1,3.19-1.17,1.8,1.8,0,0,1,1.8,2.5,4.38,4.38,0,0,1-1.9,2.38A35,35,0,0,1,50.85,63a3,3,0,0,0-.22,1.56c0,1.67.92,2.24,2.46,1.55A20.57,20.57,0,0,0,55.88,64.26Zm-5-2.1a10.32,10.32,0,0,0,3.65-2.29A2.19,2.19,0,0,0,55.23,58a1.21,1.21,0,0,0-1.74-1,2.26,2.26,0,0,0-1,.78A11.07,11.07,0,0,0,50.9,62.16Z" transform="translate(0 -29.07)"/><path class="cls-2" d="M76.77,57.59C76.26,60.46,75,63,75,66.06c1.93,0.21,2.92-1.24,4.25-2a0.63,0.63,0,0,1,.4.53,27.25,27.25,0,0,1-4.4,3,1.65,1.65,0,0,1-1.9.12,1.91,1.91,0,0,1-.43-1.88c0.33-2.4,1.11-4.69,1.64-7,0.09-.38.19-0.76,0.31-1.26H72.75a0.94,0.94,0,0,1,.14-0.91h2.19l0.83-3A9.21,9.21,0,0,1,78,52.85l-0.89,3.69a17.29,17.29,0,0,0,2.74.22,1,1,0,0,1-.14.84H76.77Z" transform="translate(0 -29.07)"/><path class="cls-2" d="M82.46,65.1a1.08,1.08,0,0,1,.06.27c0,0.78-.06,1.55.93,1.83a2.75,2.75,0,0,0,2.8-.89,2,2,0,0,0,0-2.46c-0.53-.71-1.14-1.35-1.68-2.05-1.19-1.56-1.32-3-.45-4.31A4.15,4.15,0,0,1,88.56,56a2.2,2.2,0,0,1,1.16.69A0.87,0.87,0,0,1,89.78,58a0.91,0.91,0,0,1-1.38,0c-0.24-.23-0.45-0.5-0.68-0.75A1.34,1.34,0,0,0,86,56.83a1.56,1.56,0,0,0-.82,1.78,4.37,4.37,0,0,0,1.33,2.15,10.11,10.11,0,0,1,1.33,1.63,3.37,3.37,0,0,1-1.25,5,5.31,5.31,0,0,1-4.43.4A2,2,0,0,1,80.67,66a1.05,1.05,0,0,1,.51-1.17A0.93,0.93,0,0,1,82.46,65.1Z" transform="translate(0 -29.07)"/><path class="cls-2" d="M46.28,64.8a0.81,0.81,0,0,1,.27.65,11.46,11.46,0,0,1-4.8,2.49c-1.88.34-2.91-.49-3.06-2.41a9.45,9.45,0,0,1,1-4.79,10.77,10.77,0,0,1,2.55-3.54A5.1,5.1,0,0,1,46,55.83a2.2,2.2,0,0,1,1.21.36,1.05,1.05,0,0,1,.5,1.34,1,1,0,0,1-1.31.49,7.91,7.91,0,0,1-1.16-.52,2,2,0,0,0-2.87.72,9.93,9.93,0,0,0-1.58,6.37C40.94,66.43,42,67,43.72,66.34A11.82,11.82,0,0,0,46.28,64.8Z" transform="translate(0 -29.07)"/><path class="cls-2" d="M36.36,64.77a0.87,0.87,0,0,1,.24.7,11.24,11.24,0,0,1-5,2.5c-1.61.24-2.68-.48-2.8-2.1a10.18,10.18,0,0,1,4.3-9.28,4.37,4.37,0,0,1,3-.76,2.06,2.06,0,0,1,1.33.53,1,1,0,0,1,.22,1.26,0.91,0.91,0,0,1-1,.44,4.42,4.42,0,0,1-1.43-.59,2,2,0,0,0-2.81.67,9.78,9.78,0,0,0-1.6,6.53c0.19,1.75,1.2,2.29,2.85,1.68A10,10,0,0,0,36.36,64.77Z" transform="translate(0 -29.07)"/></svg>