<svg xmlns="http://www.w3.org/2000/svg" viewBox="0 0 480 143.01"><defs><style>.cls-1{fill:#e21d38;}.cls-2{fill:#437abe;}.cls-3{fill:#2d5280;}</style></defs><g id="Layer_2" data-name="Layer 2"><g id="Layer_1-2" data-name="Layer 1"><path class="cls-1" d="M204.71,91.12l.5-.61L200,86.17l-.51.6a16.85,16.85,0,0,1-8.11,5.56,20.09,20.09,0,0,1-7.62.49A15.54,15.54,0,0,1,172.05,85a17,17,0,0,1-.74-15.12,15.72,15.72,0,0,1,10.94-9,15.33,15.33,0,0,1,14.95,5.37l.5.61L203,62.52l-.5-.61a22.23,22.23,0,0,0-21.66-7.72,22.56,22.56,0,0,0-15.73,12.92,23.58,23.58,0,0,0,1,21.26A22.36,22.36,0,0,0,183,99.59a32.81,32.81,0,0,0,3.42.19,24.44,24.44,0,0,0,6.87-.92A23.66,23.66,0,0,0,204.71,91.12Z"/><path class="cls-1" d="M229.66,53.66h-6.87L202.92,99h7.43l5.09-11.63H237L242.09,99h7.43ZM218.42,80.6l7.8-17.81L234,80.6Z"/><polygon class="cls-1" points="259.36 65.31 283.03 99.04 290.11 99.05 290.11 53.74 283.3 53.74 283.3 87.57 259.5 53.66 255.82 53.66 255.7 53.74 252.54 53.74 252.54 99.05 259.36 99.05 259.36 65.31"/><path class="cls-1" d="M319.86,53.66H313L293.12,99h7.43l5.09-11.63H327.2L332.29,99h7.43ZM308.63,80.6l7.79-17.81,7.8,17.81Z"/><path class="cls-1" d="M356.86,53.66H342.74V99l14.09,0c7.23,0,13.22-2.22,17.33-6.41s6.16-10,6.15-17.07C380.31,63.69,369.56,53.66,356.86,53.66ZM369.3,87.87c-2.84,2.89-7,4.36-12.47,4.36h-7.28l0-31.76h7.29c9,0,16.64,6.91,16.64,15.09C373.51,80.8,372.05,85.06,369.3,87.87Z"/><rect class="cls-1" x="383.03" y="53.66" width="6.81" height="45.39"/><path class="cls-1" d="M419.55,53.66h-6.87L392.81,99h7.43l5.09-11.63h21.56L432,99h7.43ZM408.31,80.6l7.8-17.81,7.8,17.81Z"/><polygon class="cls-1" points="473.19 53.74 473.19 87.57 449.39 53.66 445.71 53.66 445.59 53.74 442.43 53.74 442.43 99.05 449.24 99.05 449.24 65.31 472.92 99.04 480 99.05 480 53.74 473.19 53.74"/><path class="cls-2" d="M171.56,127.54c-2.81-1-4.4-2.4-4.35-4s1.55-3.07,3.51-3.62c1.22-.33,4.3-.71,6.76,3.1l2.6-1.67c-2.48-3.84-6.29-5.49-10.19-4.4-3.32.92-5.69,3.6-5.77,6.5,0,1.42.51,5,6.47,7,4.11,1.35,6.62,3.44,6.7,5.59a3.77,3.77,0,0,1-2.62,3.41c-2.28.93-5.92.6-9.34-3.13l-2.28,2.09c3.08,3.36,6.43,4.57,9.28,4.57a9.19,9.19,0,0,0,3.51-.67,6.79,6.79,0,0,0,4.54-6.38C180.31,134.27,179.33,130.08,171.56,127.54Z"/><path class="cls-2" d="M195.78,116.66h-3.45L181,142.52h3.38l3-6.86h13.33l3,6.86h3.37Zm-7,15.91,5.32-12.14,5.31,12.14Z"/><polygon class="cls-2" points="212.31 116.66 209.22 116.66 209.22 142.52 210.76 142.52 210.76 142.54 221.27 142.54 221.27 139.45 212.31 139.45 212.31 116.66"/><polygon class="cls-2" points="226.47 130.02 235.44 130.02 235.44 126.93 226.47 126.93 226.47 119.75 235.44 119.75 235.44 116.65 223.38 116.65 223.38 142.53 238.95 142.53 238.95 139.44 226.47 139.44 226.47 130.02"/><path class="cls-2" d="M248.11,127.54c-2.81-1-4.4-2.4-4.36-4s1.56-3.07,3.52-3.62c1.21-.33,4.3-.71,6.75,3.1l2.6-1.67c-2.47-3.84-6.28-5.49-10.18-4.4-3.32.92-5.69,3.6-5.78,6.5,0,1.42.51,5,6.47,7,4.12,1.35,6.63,3.44,6.7,5.59a3.76,3.76,0,0,1-2.61,3.41c-2.28.93-5.93.6-9.34-3.13l-2.28,2.09c3.08,3.36,6.43,4.57,9.27,4.57a9.28,9.28,0,0,0,3.52-.67,6.8,6.8,0,0,0,4.53-6.38C256.86,134.27,255.88,130.08,248.11,127.54Z"/><path class="cls-2" d="M280.53,139.47a12.51,12.51,0,0,1-4.68.31,9.61,9.61,0,0,1-7.24-4.85,10.48,10.48,0,0,1-.46-9.34,9.76,9.76,0,0,1,6.78-5.6,9.55,9.55,0,0,1,9.29,3.33l2.39-1.95a12.65,12.65,0,0,0-12.32-4.4,12.83,12.83,0,0,0-9,7.36,13.47,13.47,0,0,0,.59,12.13,12.76,12.76,0,0,0,9.6,6.39,18.48,18.48,0,0,0,2,.11,13.91,13.91,0,0,0,3.92-.53,13.53,13.53,0,0,0,6.52-4.41l-2.38-2A10.34,10.34,0,0,1,280.53,139.47Z"/><polygon class="cls-2" points="293.12 116.66 290.03 116.66 290.03 142.52 291.57 142.52 291.57 142.54 302.08 142.54 302.08 139.45 293.12 139.45 293.12 116.66"/><path class="cls-2" d="M319.66,133.31a6.61,6.61,0,1,1-13.21,0V116.67h-3.09v16.64a9.7,9.7,0,1,0,19.39,0V116.67h-3.09Z"/><path class="cls-2" d="M336.13,127.56a6.44,6.44,0,0,0,1.67-4.34,6.6,6.6,0,0,0-6.64-6.55h-5.87v25.86h7.17a7.9,7.9,0,0,0,3.67-15Zm-7.75-7.8h2.78a3.46,3.46,0,1,1,0,6.92h-2.78Zm4.08,19.66h-4.08v-9.65h4.08a4.83,4.83,0,1,1,0,9.65Z"/><path class="cls-1" d="M0,7.38a7.38,7.38,0,0,0,7.38,7.38H22.15l4.34,11.46A15.57,15.57,0,0,1,28,23.89a16,16,0,0,1,12.07-6.36l-5-12.46A8.09,8.09,0,0,0,27.54,0H7.38A7.37,7.37,0,0,0,0,7.38Z"/><path class="cls-2" d="M41.82,125l7.79,5.88,14.35-19-4.74.33c-.38,0-.77,0-1.14,0a15.94,15.94,0,0,1-5.81-1.08Z"/><rect class="cls-2" x="47.2" y="123.18" width="88.26" height="9.76" transform="translate(182.65 256.13) rotate(-180)"/><circle class="cls-1" cx="37.67" cy="128.06" r="14.94"/><circle class="cls-1" cx="135.46" cy="128.06" r="14.94"/><path class="cls-2" d="M129.62,22.9H40.86A10.8,10.8,0,0,0,30.45,36.57l8.84,32L46.9,96.08a.49.49,0,0,0,0,.11l.74,2.69a10.81,10.81,0,0,0,11.16,7.91l29.74-1.7h0l30.6-1.74a13.06,13.06,0,0,1-2.81-8.12,13.2,13.2,0,0,1,4.5-9.93A13.16,13.16,0,0,1,120.37,66a12.29,12.29,0,0,1-5.19-10V43h-9.51a1.91,1.91,0,0,1,0-3.82h14.62V55.91a7.23,7.23,0,0,0,7.94,7.18,7.42,7.42,0,0,0,6.51-7.5V28A5.11,5.11,0,0,0,129.62,22.9ZM42.44,41.7l0-.12a1.85,1.85,0,0,1,1.79-2.34H91.72a1.85,1.85,0,0,1,1.85,1.86v0a1.87,1.87,0,0,1-1.85,1.91H44.23A1.87,1.87,0,0,1,42.44,41.7Zm65.25,43.08a1.91,1.91,0,0,1-1.52,1.37,1.73,1.73,0,0,1-.32,0H56.2a1.84,1.84,0,0,1-.33,0,1.91,1.91,0,0,1-1.51-1.37,1.86,1.86,0,0,1-.07-.52,1.5,1.5,0,0,1,0-.37,1.9,1.9,0,0,1,1.87-1.53h49.65a1.92,1.92,0,0,1,1.87,1.53h0a1.5,1.5,0,0,1,0,.37A1.79,1.79,0,0,1,107.69,84.78Zm-1.44-11.3v.16a.28.28,0,0,1,0,.09c0,.09,0,.18,0,.26a1.93,1.93,0,0,1-1.85,1.41H53.21A1.9,1.9,0,0,1,51.38,74a1.73,1.73,0,0,1-.07-.5,1.92,1.92,0,0,1,.83-1.58,1.85,1.85,0,0,1,1.06-.33h51.15a1.89,1.89,0,0,1,1.08.33,3.23,3.23,0,0,1,.27.23,2.17,2.17,0,0,1,.24.29A1.9,1.9,0,0,1,106.25,73.48Zm-.4-11.37a.06.06,0,0,1,0,0,1.9,1.9,0,0,1-1.8,2.47H50.22a1.88,1.88,0,0,1-1.82-1.39v0a1.89,1.89,0,0,1,1.82-2.39h53.84A1.86,1.86,0,0,1,105.85,62.11ZM105,53.2v.64H47.25a1.92,1.92,0,0,1-1.84-1.41,1.77,1.77,0,0,1-.07-.5A1.92,1.92,0,0,1,47.25,50h49.6a1.73,1.73,0,0,1,1.12.42A12,12,0,0,0,105,53.2Z"/><path class="cls-1" d="M121.5,95.23a8.13,8.13,0,0,1,8.12-8.12h14.44a8.13,8.13,0,0,1,0,16.25H129.62A8.13,8.13,0,0,1,121.5,95.23Z"/><path class="cls-2" d="M175.1,28a8.13,8.13,0,1,1,0,16.25H139.85V28Z"/><path class="cls-1" d="M121.5,75.38a8.13,8.13,0,0,1,8.12-8.12h16.84a8.13,8.13,0,1,1,0,16.25H129.62A8.13,8.13,0,0,1,121.5,75.38Z"/><path class="cls-1" d="M139.85,46.89h7.89a8.12,8.12,0,1,1,0,16.23H137.51a12.18,12.18,0,0,0,2.34-7.2Z"/><path class="cls-1" d="M186.42,21.93a2.63,2.63,0,0,0,4.37.94q4.17-4.11,8.29-8.28a2.65,2.65,0,0,0,0-3.88,2.71,2.71,0,0,0-3.81.13c-2,2-4.06,4.06-6.09,6.1L187,19.08A2.62,2.62,0,0,0,186.42,21.93Z"/><path class="cls-1" d="M176.24,2.69a2.71,2.71,0,0,0-3-1.69,2.66,2.66,0,0,0-2.2,2.59c0,2.79,0,5.57,0,8.36,0,1.16,0,2.32,0,3.48A2.65,2.65,0,0,0,173.17,18a2.62,2.62,0,0,0,2.91-1.41,3.18,3.18,0,0,0,.3-1.32q0-5.79,0-11.58A7.42,7.42,0,0,0,176.24,2.69Z"/><path class="cls-1" d="M208.46,35.35a2.63,2.63,0,0,1-2.59,3.6L194.35,39a2.67,2.67,0,1,1-.07-5.33c.68,0,1.36,0,2,0,3.14,0,6.27-.05,9.41-.05A2.58,2.58,0,0,1,208.46,35.35Z"/><path class="cls-3" d="M88.58,105.09l-29.74,1.7a10.8,10.8,0,0,1-11.16-7.9l-.74-2.69c.47,1.11,4.78,10,22.33,10Z"/><polygon class="cls-2" points="351.19 127.32 480 129.6 351.19 131.89 351.19 127.32 351.19 127.32"/></g></g></svg>