<svg id="Layer_1" data-name="Layer 1" xmlns="http://www.w3.org/2000/svg" viewBox="0 0 100 22.04"><defs><style>.cls-1{fill:#450ea7;}.cls-2{fill:#fff;}</style></defs><title>Catz-Walk-Logo</title><path class="cls-1" d="M11,61A11,11,0,1,0,0,50,11,11,0,0,0,11,61Z" transform="translate(0 -38.98)"/><path class="cls-2" d="M9.33,44.92a3.3,3.3,0,0,0-.94,2.37,3.2,3.2,0,0,0,.94,2.34,3.11,3.11,0,0,0,2.3,1,3,3,0,0,0,1.18-.23,4.93,4.93,0,0,0,1.2-.78v1.6a4.8,4.8,0,0,1-2.4.66A4.55,4.55,0,0,1,8.4,44a4.5,4.5,0,0,1,3.29-1.35,4.58,4.58,0,0,1,2.3.65V44.9a3.8,3.8,0,0,0-2.45-1,3,3,0,0,0-2.21,1h0Z" transform="translate(0 -38.98)"/><path class="cls-2" d="M5.94,49.36L9,54.9,11,49l2,5.89,3.15-5.53h1.22L12.9,57.31,11,52l-2,5.3L4.72,49.36H5.94Z" transform="translate(0 -38.98)"/><path class="cls-2" d="M11.27,45.94c0,0.18,0,.36,0,0.54s0,0.23.23,0.17c0.64-.19.47,0.22,0.33,0.65-0.05.16-.11,0.33-0.17,0.49a1.05,1.05,0,0,0,0,.75,2.37,2.37,0,0,1-.22,1.91S11.1,49.76,11,49.62l0,0H11v0a0,0,0,0,0,0,0l0.36,0.8-0.6,1.16c0-.12-0.5-1.39-0.54-1.51a1.09,1.09,0,0,1,.41-1.34,0.58,0.58,0,0,0,0-.89c-0.18-.2-0.2-0.26,0-0.5A1.72,1.72,0,0,0,10.87,47a1.24,1.24,0,0,0,.07-0.18,0.34,0.34,0,0,0-.07-0.34l-0.14-.15L9.9,47H9.83l0,0a0.05,0.05,0,0,1,0,0,8.41,8.41,0,0,1,.64-0.85,0.42,0.42,0,0,0,.13-0.31,0.35,0.35,0,0,1,.47-0.38,0.2,0.2,0,0,0,.14-0.05c0.2-.16.72-0.54,0.77-0.56h0v0a8.5,8.5,0,0,1-.62.82,0.42,0.42,0,0,0-.11.31h0Z" transform="translate(0 -38.98)"/><path class="cls-1" d="M29.11,54.52a4.34,4.34,0,0,1-1.45-.91,4.59,4.59,0,0,1-1-1.51,5.65,5.65,0,0,1,0-4.13,4.69,4.69,0,0,1,1-1.54,4.42,4.42,0,0,1,1.51-1A5,5,0,0,1,31,45.14a5.38,5.38,0,0,1,1.86.3,7.8,7.8,0,0,1,1.33.61v2.22H34.08a3.43,3.43,0,0,0-.35-1.15,3.07,3.07,0,0,0-.68-0.89,3.1,3.1,0,0,0-1-.57,3.24,3.24,0,0,0-1.17-.21,3,3,0,0,0-2.29,1.06,3.94,3.94,0,0,0-.73,1.3,5.41,5.41,0,0,0-.27,1.81,5.62,5.62,0,0,0,.33,2,4,4,0,0,0,.87,1.4,3.42,3.42,0,0,0,1.22.81,3.84,3.84,0,0,0,1.39.26,3.47,3.47,0,0,0,1.64-.39,3.08,3.08,0,0,0,1.21-1.14l0.07,0a4.18,4.18,0,0,1-1.55,1.67,4,4,0,0,1-2,.54,4.64,4.64,0,0,1-1.67-.31h0Z" transform="translate(0 -38.98)"/><path class="cls-1" d="M35.16,54.43a1.63,1.63,0,0,0,.41-0.61l3.29-8.69h0.73l3.26,8.69a1.63,1.63,0,0,0,.41.61,1.39,1.39,0,0,0,.8.33v0.07H40.5V54.76a1.17,1.17,0,0,0,.79-0.33,0.57,0.57,0,0,0,.08-0.61l-0.94-2.47H37l-1,2.47a0.57,0.57,0,0,0,.1.61,1.27,1.27,0,0,0,.81.33v0.07H34.36V54.76a1.39,1.39,0,0,0,.8-0.33h0ZM39.93,50c-0.15-.42-0.31-0.85-0.46-1.3s-0.3-.88-0.44-1.3l-0.32-1q-0.11.36-.33,1l-0.46,1.3c-0.16.45-.31,0.89-0.46,1.3l-0.35,1h3.18Z" transform="translate(0 -38.98)"/><path class="cls-1" d="M51.32,47.23H51.27Q51,45.62,49.92,45.55l-1.87-.07V54a0.58,0.58,0,0,0,.09.32,0.58,0.58,0,0,0,.25.22,2.52,2.52,0,0,0,.86.25v0.07H45.48V54.76a2.59,2.59,0,0,0,.85-0.25,0.58,0.58,0,0,0,.25-0.22A0.58,0.58,0,0,0,46.67,54V45.48l-1.87.07a1.17,1.17,0,0,0-.89.46,2.48,2.48,0,0,0-.45,1.22H43.39V45.14h7.93v2.09Z" transform="translate(0 -38.98)"/><path class="cls-1" d="M53.94,45.55a0.89,0.89,0,0,0-.52.16,1.73,1.73,0,0,0-.41.43,2.37,2.37,0,0,0-.29.6,3.47,3.47,0,0,0-.15.7H52.5V45.14h7.41v0.08L54,54.48l4.42-.07a0.88,0.88,0,0,0,.53-0.17,1.83,1.83,0,0,0,.42-0.44,2.73,2.73,0,0,0,.31-0.63,3.33,3.33,0,0,0,.17-0.73h0.07l-0.14,2.39H52.2V54.74l5.9-9.26Z" transform="translate(0 -38.98)"/><path class="cls-1" d="M66.4,45.14v0.07a1.35,1.35,0,0,0-.79.29,0.52,0.52,0,0,0-.11.58L67.65,53l2.4-7.83h0.38L73,53l2-6.9q0.23-.73-0.89-0.88V45.14h2.56v0.07a1.57,1.57,0,0,0-.84.29,1.31,1.31,0,0,0-.39.58l-2.76,8.74h-0.5l-2.45-7.6-2.33,7.6h-0.5L64,46.09a1.28,1.28,0,0,0-.4-0.58,1.61,1.61,0,0,0-.85-0.29V45.14H66.4Z" transform="translate(0 -38.98)"/><path class="cls-1" d="M74.36,54.43a1.66,1.66,0,0,0,.41-0.61l3.29-8.68h0.73l3.26,8.68a1.66,1.66,0,0,0,.41.61,1.4,1.4,0,0,0,.8.33v0.07H79.71V54.76a1.18,1.18,0,0,0,.79-0.33,0.57,0.57,0,0,0,.08-0.61l-0.94-2.47H76.17l-1,2.47a0.57,0.57,0,0,0,.1.61,1.28,1.28,0,0,0,.81.33v0.07H73.57V54.76a1.4,1.4,0,0,0,.8-0.33h0ZM79.14,50c-0.15-.42-0.31-0.85-0.46-1.3l-0.44-1.3q-0.21-.62-0.32-1-0.11.36-.33,1l-0.46,1.3q-0.24.68-.46,1.3l-0.35,1h3.18Z" transform="translate(0 -38.98)"/><path class="cls-1" d="M87.11,45.21a2.53,2.53,0,0,0-.87.25,0.6,0.6,0,0,0-.26.22,0.59,0.59,0,0,0-.09.33v8.47l2.45-.07a1.85,1.85,0,0,0,1.25-.58,3.33,3.33,0,0,0,.65-1.76h0.07l-0.1,2.76H83.26V54.76a2.63,2.63,0,0,0,.87-0.25,0.58,0.58,0,0,0,.25-0.22A0.58,0.58,0,0,0,84.47,54V46a0.59,0.59,0,0,0-.09-0.32,0.6,0.6,0,0,0-.25-0.23,2.48,2.48,0,0,0-.87-0.25V45.14h3.85v0.07Z" transform="translate(0 -38.98)"/><path class="cls-1" d="M94.3,45.21a2.43,2.43,0,0,0-.86.25,0.59,0.59,0,0,0-.33.54v7.84a0.57,0.57,0,0,0,.08.32,0.58,0.58,0,0,0,.24.22,2.58,2.58,0,0,0,.86.24v0.07H90.53V54.62a2.57,2.57,0,0,0,.86-0.24,0.57,0.57,0,0,0,.34-0.53V46a0.59,0.59,0,0,0-.34-0.54,2.42,2.42,0,0,0-.86-0.25V45.14H94.3v0.07ZM96.95,46a0.63,0.63,0,0,0,0-.38,0.52,0.52,0,0,0-.24-0.3,1.29,1.29,0,0,0-.55-0.16V45.14h3.1v0.07a2.18,2.18,0,0,0-1,.28,4.54,4.54,0,0,0-.88.73l-3,3L97,52.35a12.52,12.52,0,0,0,1,1.12,4,4,0,0,0,.79.61,1.41,1.41,0,0,0,.62.2,1,1,0,0,0,.51-0.12v0.07a2.44,2.44,0,0,1-1.53.6,2.25,2.25,0,0,1-1.31-.47A7.58,7.58,0,0,1,95.79,53l-2.55-3.1,3.48-3.51A1,1,0,0,0,96.95,46Z" transform="translate(0 -38.98)"/><path class="cls-1" d="M90.6,57.54l0.07,0,0.08,0a0.22,0.22,0,0,1,.22.22,0.22,0.22,0,0,1-.06.16l-0.07,0-0.08,0-0.09,0-0.07,0a0.21,0.21,0,0,1-.07-0.16,0.2,0.2,0,0,1,.07-0.15h0Z" transform="translate(0 -38.98)"/><path class="cls-1" d="M91.5,56.37A1.1,1.1,0,0,1,91.75,56a1.13,1.13,0,0,1,.37-0.23,1.29,1.29,0,0,1,.46-0.08,1.18,1.18,0,0,1,.32,0,0.8,0.8,0,0,1,.25.11,0.55,0.55,0,0,1,.16.16,0.35,0.35,0,0,1,.06.2,0.23,0.23,0,0,1,0,.1,0.24,0.24,0,0,1-.06.09l-0.09.06-0.11,0-0.11,0L92.9,56.4A0.37,0.37,0,0,0,93,56.14,0.3,0.3,0,0,0,93,56a0.33,0.33,0,0,0-.08-0.11,0.4,0.4,0,0,0-.14-0.08,0.43,0.43,0,0,0-.16,0,0.63,0.63,0,0,0-.28.06,0.58,0.58,0,0,0-.21.18,1,1,0,0,0-.2.66,1.18,1.18,0,0,0,.07.43,1,1,0,0,0,.19.32,0.8,0.8,0,0,0,.28.19,0.86,0.86,0,0,0,.33.07,0.92,0.92,0,0,0,.31-0.06,0.8,0.8,0,0,0,.29-0.18l0,0a1.13,1.13,0,0,1-.39.31,1.05,1.05,0,0,1-.47.11,1.23,1.23,0,0,1-.42-0.07,1.11,1.11,0,0,1-.36-0.22,1,1,0,0,1-.24-0.33,1.09,1.09,0,0,1-.09-0.46,1.11,1.11,0,0,1,.09-0.46h0Z" transform="translate(0 -38.98)"/><path class="cls-1" d="M93.69,56.36A1,1,0,0,1,93.92,56a1,1,0,0,1,.35-0.22,1.2,1.2,0,0,1,.44-0.08,1.17,1.17,0,0,1,.44.08,1,1,0,0,1,.34.22,1,1,0,0,1,.23.35,1.19,1.19,0,0,1,.08.45,1.25,1.25,0,0,1-.08.45,1,1,0,0,1-.23.35,1,1,0,0,1-.35.22,1.21,1.21,0,0,1-.44.08,1.17,1.17,0,0,1-.44-0.08,1,1,0,0,1-.35-0.23,1,1,0,0,1-.23-0.35,1.26,1.26,0,0,1,0-.9h0Zm0.56,1.2a0.54,0.54,0,0,0,.2.19,0.53,0.53,0,0,0,.53,0,0.53,0.53,0,0,0,.19-0.19,1.34,1.34,0,0,0,.18-0.76,1.31,1.31,0,0,0-.18-0.75A0.53,0.53,0,0,0,95,55.87a0.54,0.54,0,0,0-.26-0.07,0.55,0.55,0,0,0-.27.07,0.54,0.54,0,0,0-.2.19,1.3,1.3,0,0,0-.18.75,1.32,1.32,0,0,0,.18.75h0Z" transform="translate(0 -38.98)"/><path class="cls-1" d="M96.88,56.18a1,1,0,0,1,.33-0.34,0.78,0.78,0,0,1,.43-0.13,0.57,0.57,0,0,1,.59.51,1,1,0,0,1,.33-0.37A0.78,0.78,0,0,1,99,55.71a0.6,0.6,0,0,1,.44.18,0.81,0.81,0,0,1,.18.59v1.16a0.19,0.19,0,0,0,0,.1,0.19,0.19,0,0,0,.08.07,0.9,0.9,0,0,0,.25.08v0H99.17V56.48a0.55,0.55,0,0,0-.12-0.4A0.4,0.4,0,0,0,98.75,56a0.54,0.54,0,0,0-.28.08,0.83,0.83,0,0,0-.24.23s0,0.07,0,.1v1.27a0.18,0.18,0,0,0,0,.1,0.19,0.19,0,0,0,.08.07,0.7,0.7,0,0,0,.24.08v0H97.8V56.48a0.56,0.56,0,0,0-.12-0.4A0.39,0.39,0,0,0,97.39,56a0.54,0.54,0,0,0-.27.08,0.83,0.83,0,0,0-.24.21v1.39a0.19,0.19,0,0,0,.1.17,0.74,0.74,0,0,0,.25.08v0H96v0a0.85,0.85,0,0,0,.28-0.08,0.19,0.19,0,0,0,.08-0.07,0.19,0.19,0,0,0,0-.1V56.09a0.17,0.17,0,0,0,0-.09,0.17,0.17,0,0,0-.08-0.06A0.67,0.67,0,0,0,96,55.88v0l0.85-.15v0.47Z" transform="translate(0 -38.98)"/><path class="cls-2" d="M90.09,54.61H84.8l1.74-1.54h1.83Z" transform="translate(0 -38.98)"/><path class="cls-2" d="M89.43,54.61h-4l1.41-1.54H88Z" transform="translate(0 -38.98)"/><path class="cls-1" d="M86.91,53.16l2.35,1.32,0.09,0.06H85.56Z" transform="translate(0 -38.98)"/><path class="cls-1" d="M86.94,53.07l-1.48,1.54H85.8L87,53.07H86.94Z" transform="translate(0 -38.98)"/><path class="cls-1" d="M87.89,53.07l0.78,1.54h0.76l-1.49-1.54H87.89Z" transform="translate(0 -38.98)"/><path class="cls-2" d="M87,53.07l-1.47,1.54H85.46L87,53.07h0Z" transform="translate(0 -38.98)"/><path class="cls-2" d="M89.43,54.61H89.36l-1.26-1.54h0Z" transform="translate(0 -38.98)"/><path class="cls-1" d="M87,53.07l-1.5,1.54,4-.14-1.33-1.4H87Z" transform="translate(0 -38.98)"/><path class="cls-1" d="M87.15,47.52a0.34,0.34,0,0,1-.33.23c0,0.12.17,0,.17,0h-0.1l-0.1,0c0,0.15.2,0.06,0.2,0.06l-0.19,0a0.66,0.66,0,0,0,.6.31,1.13,1.13,0,0,0,.23-1c-0.1-.11-0.32-0.14-0.36,0a2.62,2.62,0,0,1-.12.32h0Z" transform="translate(0 -38.98)"/><path class="cls-1" d="M88.19,47.35c0,0.1.15,0.38,0.32,0.32,0,0.15-.17.05-0.17,0.05l0.1,0,0.1,0c0,0.17-.2.07-0.2,0.07a0.69,0.69,0,0,0,.2.05,0.45,0.45,0,0,1-.55.12,1.08,1.08,0,0,1-.3-0.93c0.1-.13.32-0.17,0.36,0a1.64,1.64,0,0,0,.14.34h0Z" transform="translate(0 -38.98)"/><path class="cls-1" d="M87.83,47.34a0.57,0.57,0,0,0,.06.48,2.39,2.39,0,0,1,.44.22,1.21,1.21,0,0,1-.6.39A0.9,0.9,0,0,1,87,48.21C87,48.11,87,48,87,48a0.77,0.77,0,0,0,.38-0.2,3,3,0,0,0,0-.45h0.44Z" transform="translate(0 -38.98)"/><path class="cls-1" d="M87.78,51.55a2.7,2.7,0,0,1-.19,1l-0.06.23a0.44,0.44,0,0,0,0,.11V53a0.43,0.43,0,0,1-.06.23c-0.1.06-.25,0-0.24-0.09s0.1-.32.11-0.39,0-.27.06-0.39a6.2,6.2,0,0,1,0-.83,4.55,4.55,0,0,0,0-.86l0.65-.28Z" transform="translate(0 -38.98)"/><path class="cls-1" d="M87.66,53.11c0,0.06-.07.08-0.22,0.07s-0.17-.05-0.14-0.11-0.09.1-.07,0.13a0.21,0.21,0,0,0,.14.09l0.15,0a0.23,0.23,0,0,0,.1-0.06,0.12,0.12,0,0,0,0-.1h0Z" transform="translate(0 -38.98)"/><path class="cls-1" d="M87,49.92a10.72,10.72,0,0,0,.24,1.67,1.73,1.73,0,0,0,0,.6c0.06,0.32.13,0.6,0.17,0.88a3.51,3.51,0,0,0,0,.58c0,0.12.24,0.09,0.23,0s-0.06-.42-0.08-0.61,0-.72,0-1a3.84,3.84,0,0,1,0-.42c0-.15-0.07-1.46-0.07-1.71S87,49.92,87,49.92Z" transform="translate(0 -38.98)"/><path class="cls-1" d="M87.45,53.61a0.16,0.16,0,0,0,.1.08,0.54,0.54,0,0,0,.19,0l0.1,0a0.11,0.11,0,0,0,.05-0.06,0.19,0.19,0,0,0,0-.1,0.19,0.19,0,0,1-.15.08l-0.16,0a0.12,0.12,0,0,1-.08-0.07S87.44,53.56,87.45,53.61Z" transform="translate(0 -38.98)"/><path class="cls-1" d="M87.67,47a2.53,2.53,0,0,1,.37.67c0.11,0.19.27,0.17,0.29,0.07s-0.18.16-.27-0.23-0.28-.59-0.32-0.56L87.67,47h0Z" transform="translate(0 -38.98)"/><path class="cls-1" d="M87.89,46.9a0.7,0.7,0,0,1,.33.51c0.06,0.15.17,0.44,0.33,0.31a0.17,0.17,0,0,1-.08.05H88.38a0.17,0.17,0,0,1-.08-0.05,0.19,0.19,0,0,1,0-.09,8,8,0,0,0-.38-0.74h0Z" transform="translate(0 -38.98)"/><path class="cls-1" d="M86.92,48.08a0.59,0.59,0,0,0-.06.36c0,0.1-.07.65-0.06,0.68a0.72,0.72,0,0,0,0,.38,2.1,2.1,0,0,1,0,.36,1.92,1.92,0,0,1-.05.2,0.33,0.33,0,0,0,.12.13,0.25,0.25,0,0,0,.09,0,0.06,0.06,0,0,0,0,0l-0.07-.06,0.07,0a0.21,0.21,0,0,0,.08,0l0,0h0l-0.05,0L87,50.14s0,0,0,0L87,50.09s0,0,0-.08a0.38,0.38,0,0,0,0-.14,2,2,0,0,0,0-.7s0.07-.45.1-0.66a0.89,0.89,0,0,0,.08-0.43,0.14,0.14,0,0,0,0-.06l-0.07,0L87,48l-0.07.06h0Z" transform="translate(0 -38.98)"/><path class="cls-1" d="M88.16,48a0.35,0.35,0,0,1,.16.36,4.79,4.79,0,0,0,.16.73,1.29,1.29,0,0,1,.09.45c0,0.14.08,0.4,0.09,0.44a2.15,2.15,0,0,0,.11.22,0.36,0.36,0,0,1-.1.17,0.24,0.24,0,0,1-.1,0,0.06,0.06,0,0,1,0,0l0.06-.08-0.07.07a0.12,0.12,0,0,1-.08,0,0,0,0,0,1,0,0,0.15,0.15,0,0,0,0,0l0-.06a0.41,0.41,0,0,1-.08.07s0,0,0,0a0.23,0.23,0,0,1,.07-0.07,0.17,0.17,0,0,0,0-.08,0.43,0.43,0,0,1,0-.16,2.57,2.57,0,0,1-.29-0.84L88,48.56c-0.08-.23-0.2-0.2-0.11-0.31A1.08,1.08,0,0,1,88,48h0.14Z" transform="translate(0 -38.98)"/><path class="cls-1" d="M88.72,50.2a0.59,0.59,0,0,0-.16.22,1,1,0,0,0,.21-0.13Z" transform="translate(0 -38.98)"/><path class="cls-1" d="M87.67,48.42A0.84,0.84,0,0,0,88.1,48a1.4,1.4,0,0,1-.07.6c0,0.12-.36,0-0.36,0v-0.2Z" transform="translate(0 -38.98)"/><path class="cls-1" d="M87.66,48.42A0.73,0.73,0,0,1,87.22,48a2.47,2.47,0,0,0,.06.56,0.48,0.48,0,0,0,.38.1V48.42Z" transform="translate(0 -38.98)"/><path class="cls-1" d="M88.27,48.22a0.82,0.82,0,0,1,0,.41,0.82,0.82,0,0,0,0,.52,3.44,3.44,0,0,1,.13.87s-0.15,1-.15,1.06a1.34,1.34,0,0,1-.88-0.18,1.08,1.08,0,0,0-.52,0A0.57,0.57,0,0,0,87,50.58c0.05-.33,0-0.85.08-1s0.26-.45.26-0.56-0.09-.42-0.12-0.67A1.13,1.13,0,0,0,88.27,48.22Z" transform="translate(0 -38.98)"/><path class="cls-1" d="M86.89,50.55c0.05-.34.08-0.85,0.14-1a6.15,6.15,0,0,0,.24-0.6c0-.11-0.11-0.45-0.14-0.7a0.28,0.28,0,0,0,.18.09V48.5a1.83,1.83,0,0,1,.12.53,1.83,1.83,0,0,0-.23.72,10,10,0,0,0,.06,1.1,0.86,0.86,0,0,0-.48,0A0.92,0.92,0,0,0,86.89,50.55Z" transform="translate(0 -38.98)"/><path class="cls-1" d="M87.71,47.56l0.16,0a1.62,1.62,0,0,0,0,.24,2.33,2.33,0,0,1-.45.6,0.69,0.69,0,0,1-.43-0.3,0.87,0.87,0,0,0,.45-0.18,0.67,0.67,0,0,0,0-.35Z" transform="translate(0 -38.98)"/><path class="cls-1" d="M87.83,47.45a0.45,0.45,0,0,1-.39.33,0.46,0.46,0,0,1-.22-0.51,0.31,0.31,0,0,1,.41-0.35A0.34,0.34,0,0,1,87.83,47.45Z" transform="translate(0 -38.98)"/><path class="cls-1" d="M87.48,47.15a0.19,0.19,0,0,0-.26.21c0,0.32-.19.51-0.44,0.38,0.28,0,.27-0.29.34-0.49a0.4,0.4,0,0,1,.54-0.32,0.62,0.62,0,0,0-.18.22h0Z" transform="translate(0 -38.98)"/><path class="cls-1" d="M87.45,47.1a0.24,0.24,0,0,1,.33.23,0.47,0.47,0,0,0,.55.45A0.31,0.31,0,0,1,88,47.45c0-.34-0.16-0.63-0.44-0.54S87.45,47.1,87.45,47.1Z" transform="translate(0 -38.98)"/></svg>