<svg id="Layer_1" data-name="Layer 1" xmlns="http://www.w3.org/2000/svg" viewBox="0 0 70 21.99"><defs><style>.cls-1{fill:#2e3192;}</style></defs><title>Professional-Scopist-Logo</title><path class="cls-1" d="M16.13,39.43h3.29c2,0,3.29,1.06,3.29,2.8v0c0,1.9-1.58,2.88-3.46,2.88H17.12v3.11h-1V39.43Zm3.17,4.8c1.46,0,2.41-.78,2.41-1.94v0c0-1.26-.94-1.91-2.36-1.91H17.12v3.88H19.3Z" transform="translate(-15 -39)"/><path class="cls-1" d="M24,41.74h1v1.7a2.79,2.79,0,0,1,2.65-1.81v1H27.53c-1.42,0-2.57,1-2.57,3v2.59H24V41.74Z" transform="translate(-15 -39)"/><path class="cls-1" d="M28,45v0a3.39,3.39,0,0,1,6.77,0v0A3.37,3.37,0,0,1,31.4,48.4,3.33,3.33,0,0,1,28,45Zm5.78,0v0a2.46,2.46,0,0,0-2.41-2.54A2.4,2.4,0,0,0,29,45v0A2.4,2.4,0,1,0,33.8,45Z" transform="translate(-15 -39)"/><path class="cls-1" d="M36.54,42.59H35.65V41.75h0.89V41.18a2.27,2.27,0,0,1,.57-1.67,1.88,1.88,0,0,1,1.4-.5,3,3,0,0,1,1.07.16V40a3.18,3.18,0,0,0-.94-0.17,1.13,1.13,0,0,0-1.13,1.39v0.53h2.06v0.83h-2v5.65h-1V42.59Z" transform="translate(-15 -39)"/><path class="cls-1" d="M39.87,45v0A3.2,3.2,0,0,1,43,41.6c1.92,0,3,1.53,3,3.44a2.24,2.24,0,0,1,0,.31H40.88a2.27,2.27,0,0,0,2.29,2.2,2.7,2.7,0,0,0,2-.92l0.6,0.54a3.29,3.29,0,0,1-2.68,1.22A3.24,3.24,0,0,1,39.87,45ZM45,44.64A2.14,2.14,0,0,0,43,42.42a2.25,2.25,0,0,0-2.11,2.22H45Z" transform="translate(-15 -39)"/><path class="cls-1" d="M46.8,47.42l0.49-.69a3.72,3.72,0,0,0,2.25.83,1.15,1.15,0,0,0,1.35-1v0c0-.64-0.77-0.91-1.62-1.15s-2.15-.63-2.15-1.84v0a2,2,0,0,1,2.21-1.86,4.39,4.39,0,0,1,2.34.72l-0.44.73a3.64,3.64,0,0,0-1.92-.63A1.08,1.08,0,0,0,48,43.4v0c0,0.62.81,0.86,1.67,1.12s2.09,0.69,2.09,1.86v0a2,2,0,0,1-2.31,2A4.47,4.47,0,0,1,46.8,47.42Z" transform="translate(-15 -39)"/><path class="cls-1" d="M52.56,47.42L53,46.73a3.72,3.72,0,0,0,2.25.83,1.15,1.15,0,0,0,1.35-1v0c0-.64-0.77-0.91-1.62-1.15s-2.15-.63-2.15-1.84v0a2,2,0,0,1,2.21-1.86,4.4,4.4,0,0,1,2.34.72L57,43.08a3.63,3.63,0,0,0-1.92-.63,1.08,1.08,0,0,0-1.26.94v0c0,0.62.81,0.86,1.67,1.12s2.09,0.69,2.09,1.86v0a2,2,0,0,1-2.31,2A4.46,4.46,0,0,1,52.56,47.42Z" transform="translate(-15 -39)"/><path class="cls-1" d="M59,39.24h1.1v1.07H59V39.24Zm0.06,2.49h1v6.51h-1V41.74Z" transform="translate(-15 -39)"/><path class="cls-1" d="M61.51,45v0a3.39,3.39,0,0,1,6.77,0v0a3.37,3.37,0,0,1-3.4,3.41A3.33,3.33,0,0,1,61.51,45Zm5.78,0v0a2.46,2.46,0,0,0-2.41-2.54A2.4,2.4,0,0,0,62.5,45v0A2.4,2.4,0,1,0,67.29,45Z" transform="translate(-15 -39)"/><path class="cls-1" d="M69.65,41.74h1v1.13a2.48,2.48,0,0,1,2.22-1.27,2.38,2.38,0,0,1,2.49,2.61v4h-1v-3.8a1.73,1.73,0,0,0-1.8-2,1.89,1.89,0,0,0-1.95,2v3.73h-1V41.74Z" transform="translate(-15 -39)"/><path class="cls-1" d="M76.52,46.36v0c0-1.36,1.13-2.1,2.78-2.1a6.91,6.91,0,0,1,2,.27V44.28a1.68,1.68,0,0,0-1.94-1.78,4.38,4.38,0,0,0-2,.48l-0.29-.79a5.17,5.17,0,0,1,2.36-.54,2.86,2.86,0,0,1,2.1.72,2.59,2.59,0,0,1,.67,1.9v4H81.3v-1A2.83,2.83,0,0,1,79,48.39,2.18,2.18,0,0,1,76.52,46.36Zm4.79-.5V45.23A6.78,6.78,0,0,0,79.4,45c-1.22,0-1.89.53-1.89,1.36v0a1.45,1.45,0,0,0,1.62,1.3A2,2,0,0,0,81.31,45.86Z" transform="translate(-15 -39)"/><path class="cls-1" d="M84,39.06h1v9.19H84V39.06Z" transform="translate(-15 -39)"/><path class="cls-1" d="M15,57.67L16.35,56a4.54,4.54,0,0,0,2.85,1.06c0.67,0,1-.21,1-0.6v0c0-.38-0.29-0.54-1.5-0.86-1.86-.43-3.3-0.94-3.3-2.76v0c0-1.65,1.29-2.82,3.41-2.82a5.5,5.5,0,0,1,3.62,1.17l-1.22,1.72A4.18,4.18,0,0,0,18.77,52c-0.59,0-.88.23-0.88,0.57v0c0,0.39.3,0.59,1.53,0.85,2,0.44,3.27,1.08,3.27,2.74v0c0,1.8-1.42,2.87-3.56,2.87A6.17,6.17,0,0,1,15,57.67Z" transform="translate(-15 -39)"/><path class="cls-1" d="M23.08,55.61v0A3.52,3.52,0,0,1,26.71,52a3.23,3.23,0,0,1,2.9,1.51L28,54.75A1.53,1.53,0,0,0,26.74,54a1.42,1.42,0,0,0-1.35,1.52v0a1.41,1.41,0,0,0,1.35,1.55,1.59,1.59,0,0,0,1.3-.71l1.6,1.16a3.34,3.34,0,0,1-3,1.56A3.5,3.5,0,0,1,23.08,55.61Z" transform="translate(-15 -39)"/><path class="cls-1" d="M29.67,55.61v0a3.76,3.76,0,0,1,7.5,0v0a3.62,3.62,0,0,1-3.77,3.56A3.57,3.57,0,0,1,29.67,55.61Zm5.19,0v0A1.48,1.48,0,0,0,33.4,54,1.42,1.42,0,0,0,32,55.56v0a1.47,1.47,0,0,0,1.45,1.53A1.44,1.44,0,0,0,34.86,55.61Z" transform="translate(-15 -39)"/><path class="cls-1" d="M37.8,52.17h2.39v0.91A2.5,2.5,0,0,1,42.25,52c1.61,0,3,1.36,3,3.53v0c0,2.22-1.39,3.56-3,3.56a2.57,2.57,0,0,1-2.08-1V61H37.8V52.17Zm5.14,3.41v0a1.4,1.4,0,1,0-2.79,0v0a1.44,1.44,0,0,0,1.39,1.55,1.42,1.42,0,0,0,1.38-1.55h0Z" transform="translate(-15 -39)"/><path class="cls-1" d="M45.93,49.79h2.47v1.76H45.93V49.79Zm0,2.38h2.38V59H46V52.17Z" transform="translate(-15 -39)"/><path class="cls-1" d="M48.82,58.11l0.89-1.43a4.42,4.42,0,0,0,2.33.78c0.41,0,.62-0.13.62-0.37h0c0-.29-0.39-0.39-1.11-0.59-1.35-.34-2.41-0.81-2.41-2.17v0c0-1.45,1.17-2.25,2.73-2.25a5.31,5.31,0,0,1,2.81.78l-0.81,1.51a4.48,4.48,0,0,0-2-.64c-0.37,0-.54.14-0.54,0.34v0c0,0.27.4,0.39,1.1,0.6,1.35,0.37,2.41.84,2.41,2.17v0c0,1.5-1.12,2.28-2.78,2.28A5.32,5.32,0,0,1,48.82,58.11Z" transform="translate(-15 -39)"/><path class="cls-1" d="M60.27,58.14l0.89-1.43a4.42,4.42,0,0,0,2.33.78c0.41,0,.62-0.13.62-0.37h0c0-.29-0.39-0.39-1.11-0.59-1.35-.34-2.41-0.81-2.41-2.17v0c0-1.45,1.17-2.25,2.73-2.25a5.31,5.31,0,0,1,2.81.78l-0.81,1.51a4.48,4.48,0,0,0-2-.64c-0.37,0-.54.14-0.54,0.34v0c0,0.27.4,0.39,1.1,0.6,1.35,0.37,2.41.84,2.41,2.17v0c0,1.5-1.12,2.28-2.78,2.28A5.32,5.32,0,0,1,60.27,58.14Z" transform="translate(-15 -39)"/><path class="cls-1" d="M55.71,56.87V54.08H54.9V52.17h0.81V50.44h2.38v1.73h1.58v1.91H58.09V56.4a0.57,0.57,0,0,0,.65.68,2.09,2.09,0,0,0,.9-0.23v1.85a3.43,3.43,0,0,1-1.66.4A2,2,0,0,1,55.71,56.87Z" transform="translate(-15 -39)"/><path class="cls-1" d="M75.56,54.75a1.16,1.16,0,0,0-.43.09,1.1,1.1,0,0,0-.36.24,1,1,0,0,0-.23.36,1,1,0,0,0-.07.41h0a1,1,0,0,0,.07.42,1.05,1.05,0,0,0,.24.36,1.13,1.13,0,0,0,.36.24,1.18,1.18,0,0,0,.43.09A1.17,1.17,0,0,0,76,56.88a1.12,1.12,0,0,0,.36-0.24,1,1,0,0,0,.24-0.35,1,1,0,0,0,.07-0.41h0a1,1,0,0,0-.07-0.42,1.08,1.08,0,0,0-.24-0.36A1.14,1.14,0,0,0,76,54.84,1.19,1.19,0,0,0,75.56,54.75Z" transform="translate(-15 -39)"/><path class="cls-1" d="M84.07,52.54H68.2a0.92,0.92,0,0,0-.66.28,1,1,0,0,0-.27.68v4.63a1,1,0,0,0,.07.37,1,1,0,0,0,.2.31,0.93,0.93,0,0,0,.3.21,0.9,0.9,0,0,0,.36.07H84.07a0.92,0.92,0,0,0,.66-0.28A1,1,0,0,0,85,58.13V53.49a1,1,0,0,0-.07-0.37,1,1,0,0,0-.2-0.31,0.92,0.92,0,0,0-.3-0.21A0.91,0.91,0,0,0,84.07,52.54ZM70,57.48H69.45V56.8H70v0.68Zm2.17,0.08a1.62,1.62,0,0,1-.64-0.13A1.66,1.66,0,0,1,71,57.05a1.72,1.72,0,0,1-.36-0.56,1.75,1.75,0,0,1-.12-0.66h0a1.78,1.78,0,0,1,.3-1,1.7,1.7,0,0,1,.8-0.64,1.65,1.65,0,0,1,1-.06,1.69,1.69,0,0,1,.86.54L73.18,55a1.31,1.31,0,0,0-.44-0.37,1.27,1.27,0,0,0-.55-0.14,1.17,1.17,0,0,0-.46.11,1.2,1.2,0,0,0-.38.28,1.24,1.24,0,0,0-.25.42,1.27,1.27,0,0,0-.07.48h0a1.29,1.29,0,0,0,.08.49,1.25,1.25,0,0,0,.26.42,1.22,1.22,0,0,0,.39.29,1.19,1.19,0,0,0,.47.11A1.3,1.3,0,0,0,72.77,57a1.34,1.34,0,0,0,.44-0.36l0.31,0.3a1.65,1.65,0,0,1-.59.48A1.61,1.61,0,0,1,72.2,57.56Zm5-1.74a1.77,1.77,0,0,1-.13.67,1.73,1.73,0,0,1-.37.57,1.68,1.68,0,0,1-.56.38,1.67,1.67,0,0,1-1.85-.37A1.72,1.72,0,0,1,74,56.49a1.76,1.76,0,0,1-.12-0.67h0a1.77,1.77,0,0,1,.49-1.23,1.66,1.66,0,0,1,2.4,0,1.77,1.77,0,0,1,.5,1.23h0Zm5.62,1.67H82.37v-2a0.85,0.85,0,0,0-.84-1,0.93,0.93,0,0,0-.9,1v1.93H80.14v-2a0.85,0.85,0,0,0-.84-1,1,1,0,0,0-.91,1.06v1.91H77.92V54.14H78.4V54.7a1.2,1.2,0,0,1,.44-0.47,1.16,1.16,0,0,1,.61-0.17,1.07,1.07,0,0,1,.62.17,1.11,1.11,0,0,1,.42.5A1.31,1.31,0,0,1,81,54.24a1.27,1.27,0,0,1,.66-0.17,1.18,1.18,0,0,1,1.21,1.34v2.07Z" transform="translate(-15 -39)"/></svg>