<svg id="Layer_1" data-name="Layer 1" xmlns="http://www.w3.org/2000/svg" viewBox="0 0 78.47 40.29"><defs><style>.cls-1{fill:#4f4f51;}.cls-2{fill:#50823b;}</style></defs><title>Review-My-Renters-Logo</title><path class="cls-1" d="M30,32.57l-0.94-.45,0.14-1-0.72.75-0.94-.45,0.49,0.91-0.72.75,1-.19,0.49,0.91,0.14-1Z" transform="translate(-10.77 -29.85)"/><path class="cls-1" d="M33.05,34.83l-0.79-.67,0.4-1-0.88.54L31,33.07l0.24,1-0.89.54,1,0.08,0.24,1,0.4-1Z" transform="translate(-10.77 -29.85)"/><path class="cls-1" d="M35.39,37.78l-0.59-.85,0.63-.82-1,.29-0.59-.85,0,1-1,.29,1,0.35,0,1,0.63-.82Z" transform="translate(-10.77 -29.85)"/><path class="cls-1" d="M22.68,30.72l-1,.08-0.4-1-0.24,1-1,.09,0.89,0.53-0.24,1,0.79-.67,0.89,0.53-0.4-1Z" transform="translate(-10.77 -29.85)"/><path class="cls-1" d="M26.44,31.15l-1-.18-0.14-1-0.49.91-1-.19,0.72,0.75L24,32.32l0.93-.45,0.72,0.74-0.14-1Z" transform="translate(-10.77 -29.85)"/><path class="cls-2" d="M19.14,37.34a1.12,1.12,0,0,0,.13-1.79L19,35.72c-1.82,1-3.65,2-5.47,3A11.46,11.46,0,0,0,12.84,40a11.13,11.13,0,0,0-.92,5.76l4.95,2.18a0.91,0.91,0,0,0,1.18-.39l0.71-1-4-1.76a0.33,0.33,0,0,1,.27-0.6L19.15,46l0.7-1-4.33-1.91a0.33,0.33,0,0,1,.27-0.6l4.45,2,0.3-.42a0.82,0.82,0,0,0-.39-1.42c-1.17-.52-2.32-1.07-3.51-1.54a0.82,0.82,0,0,1-.22-1.51C17.36,38.83,18.24,38.08,19.14,37.34Z" transform="translate(-10.77 -29.85)"/><path class="cls-2" d="M28.65,50.89l-4-1.77-0.27,1.19a0.89,0.89,0,0,0,.5,1.13q2.47,1.11,4.94,2.19a11.2,11.2,0,0,0,3.68-4.52,11.38,11.38,0,0,0,.48-1.3c-0.46-2-.93-4-1.4-6.06l-0.08-.35a1.13,1.13,0,0,0-1.25,1.29c0,1.16.07,2.32,0.17,3.47a0.83,0.83,0,0,1-1.28.85c-1.15-.56-2.33-1-3.5-1.56a0.83,0.83,0,0,0-1.32.66l-0.11.5,4.45,2a0.33,0.33,0,0,1-.27.6l-4.33-1.91c-0.09.39-.19,0.79-0.27,1.18l4.11,1.82A0.33,0.33,0,0,1,28.65,50.89Z" transform="translate(-10.77 -29.85)"/><path class="cls-2" d="M27.78,34.26a11.34,11.34,0,0,0-8.32-.34,1.54,1.54,0,0,1,.58.3,2.65,2.65,0,0,1,.16,4.19c-0.56.48-1.14,0.93-1.71,1.41l-0.31.28,2.41,1.07a4.09,4.09,0,0,1,.86.46,2.25,2.25,0,0,1,.41,3.16C21,46,20.16,47.15,19.31,48.34A2.42,2.42,0,0,1,16.6,49.4a1.76,1.76,0,0,1-.37-0.1l-3.95-1.75a11.25,11.25,0,0,0,3.25,5.27l-1.33,3,0.62,1.61-4,9L12,70.15l3.65-1.8,0.73-1.63L17.49,66l0-.84L18,64.08l0.55-.28-0.55-1.95,1.85-1-0.93-2.07L21.11,58l1-2.24a11.4,11.4,0,0,0,6.12-1.13l-3.95-1.75A1.79,1.79,0,0,1,24,52.65a2.4,2.4,0,0,1-1-2.71c0.33-1.42.64-2.84,1-4.27a2.26,2.26,0,0,1,.95-1.43,2.29,2.29,0,0,1,1.68-.36,4.26,4.26,0,0,1,.92.33l2.41,1.06V44.84c0-.74-0.08-1.47-0.1-2.21a2.65,2.65,0,0,1,1-2.14A2.68,2.68,0,0,1,33,40a1.5,1.5,0,0,1,.61.23A11.24,11.24,0,0,0,27.78,34.26Zm-0.6,6.44a2.06,2.06,0,1,1,.18-0.79A2.08,2.08,0,0,1,27.18,40.7Z" transform="translate(-10.77 -29.85)"/><path class="cls-1" d="M40,53.16h1.37l1.51,2.41,1.51-2.41h1.37v5.73H44.49V55.15L42.87,57.6h0l-1.6-2.41V58.9H40V53.16Z" transform="translate(-10.77 -29.85)"/><path class="cls-1" d="M48.18,56.63L46,53.16h1.48l1.38,2.3,1.4-2.3h1.44l-2.22,3.45v2.28H48.17V56.63Z" transform="translate(-10.77 -29.85)"/><path class="cls-1" d="M53.76,53.16H56.4a2.31,2.31,0,0,1,1.68.58A1.79,1.79,0,0,1,58.57,55v0a1.78,1.78,0,0,1-1.23,1.78l1.41,2H57.27L56,57.06H55v1.83H53.76V53.16Zm2.55,2.79a0.83,0.83,0,0,0,1-.81v0a0.83,0.83,0,0,0-1-.82H55v1.64h1.29Z" transform="translate(-10.77 -29.85)"/><path class="cls-1" d="M59.14,53.16h4.35v1.11H60.4v1.16h2.72v1.11H60.4v1.2h3.13v1.11H59.14V53.16Z" transform="translate(-10.77 -29.85)"/><path class="cls-1" d="M64.08,53.16h1.17l2.7,3.53V53.16h1.25v5.73H68.12l-2.8-3.63v3.64H64.07V53.16Z" transform="translate(-10.77 -29.85)"/><path class="cls-1" d="M71.34,54.33H69.59V53.16h4.77v1.16H72.61v4.56H71.34V54.33Z" transform="translate(-10.77 -29.85)"/><path class="cls-1" d="M74.76,53.16H79.1v1.11H76v1.16h2.71v1.11H76v1.2h3.13v1.11H74.76V53.16Z" transform="translate(-10.77 -29.85)"/><path class="cls-1" d="M79.7,53.16h2.62a2.31,2.31,0,0,1,1.68.58A1.79,1.79,0,0,1,84.49,55v0a1.77,1.77,0,0,1-.31,1.09,1.79,1.79,0,0,1-.92.68l1.41,2H83.19L82,57.06H81v1.83H79.7V53.16Zm2.55,2.79a0.83,0.83,0,0,0,1-.81v0a0.83,0.83,0,0,0-1-.82H81v1.64h1.28Z" transform="translate(-10.77 -29.85)"/><path class="cls-1" d="M84.67,58.06l0.75-.89a2.65,2.65,0,0,0,1.72.69c0.52,0,.83-0.2.83-0.54v0c0-.32-0.2-0.48-1.16-0.73-1.16-.29-1.91-0.61-1.91-1.75v0a1.8,1.8,0,0,1,2-1.73,3.35,3.35,0,0,1,2.14.73l-0.66.95a2.69,2.69,0,0,0-1.49-.56,0.62,0.62,0,0,0-.75.5v0c0,0.37.25,0.5,1.24,0.74,1.17,0.3,1.83.72,1.83,1.72v0A1.83,1.83,0,0,1,87.11,59,3.68,3.68,0,0,1,84.67,58.06Z" transform="translate(-10.77 -29.85)"/><path class="cls-2" d="M40,41h4.14a3.62,3.62,0,0,1,2.64.91A2.82,2.82,0,0,1,47.54,44v0a2.79,2.79,0,0,1-1.94,2.79L47.81,50H45.49l-1.94-2.88H42V50H40V41Zm4,4.37a1.31,1.31,0,0,0,1.53-1.27v0A1.31,1.31,0,0,0,44,42.82H42v2.59h2Z" transform="translate(-10.77 -29.85)"/><path class="cls-2" d="M48.44,41h6.83V42.8H50.41v1.82h4.27v1.76H50.41v1.89h4.92V50H48.44V41Z" transform="translate(-10.77 -29.85)"/><path class="cls-2" d="M55.42,41h2.2L60,47.37,62.35,41H64.5L60.84,50.1H59.08Z" transform="translate(-10.77 -29.85)"/><path class="cls-2" d="M65.08,41h2v9h-2V41Z" transform="translate(-10.77 -29.85)"/><path class="cls-2" d="M68.43,41h6.83V42.8H70.4v1.82h4.27v1.76H70.41v1.89h4.92V50H68.43V41Z" transform="translate(-10.77 -29.85)"/><path class="cls-2" d="M75.5,41h2.14l1.87,6.1,2-6.13h1.71l2,6.13L87.14,41h2.1L86.14,50.1H84.41l-2-5.89-2,5.89H78.58Z" transform="translate(-10.77 -29.85)"/></svg>