<svg id="Layer_1" data-name="Layer 1" xmlns="http://www.w3.org/2000/svg" viewBox="0 0 100 27.45"><defs><style>.cls-1{fill:#bb8c4b;}.cls-2{fill:#cdd4dc;}.cls-3{fill:#7e8892;opacity:0.5;isolation:isolate;}.cls-4{fill:#6b4f2f;}</style></defs><title>Sit-Down-Cafe-Logo</title><path class="cls-1" d="M18.85,37.65h6.07V39.1H22.87v2.81a0.78,0.78,0,0,1-.69.59l0,0.05v0a1.85,1.85,0,0,0,.44.23,0.49,0.49,0,0,1,.29.38v3.9h-2V43.29a0.81,0.81,0,0,0-.74-0.66V42.55a2.61,2.61,0,0,1,.52-0.27,0.52,0.52,0,0,0,.22-0.43V39.1H18.85V37.65Z" transform="translate(0 -36.28)"/><path class="cls-1" d="M25.54,37.65h2v4h2.36v-4h2v4.29a0.82,0.82,0,0,1-.71.63s0,0,0,0a1.37,1.37,0,0,0,.54.3,0.6,0.6,0,0,1,.22.32v3.87h-2V43.29l0-.18H27.47l0,0v4h-2V43.29a0.69,0.69,0,0,0-.64-0.55l-0.07-.07V42.59a0.91,0.91,0,0,0,.71-0.67V37.65Z" transform="translate(0 -36.28)"/><path class="cls-1" d="M32.42,37.65H38v1.43h-3.6v2.58H37V42a0.84,0.84,0,0,1-.69.55l0,0.09a1.57,1.57,0,0,1,.66.46h-2.6l0,0.21v2.36H38v1.43H32.42V43.19a0.79,0.79,0,0,0-.69-0.52l0-.09A1.11,1.11,0,0,0,32.42,42V37.65Z" transform="translate(0 -36.28)"/><path class="cls-1" d="M21.89,48.52h0.39a3.22,3.22,0,0,1,2.33.86,2.16,2.16,0,0,1,.61,1.25v0.3H23.34a1.12,1.12,0,0,0-1.1-1.13H22.07a1,1,0,0,0-1,.93v0.11q0,1,2,2.11a0.57,0.57,0,0,1,.27.3v0a1.6,1.6,0,0,0-.1.22v0a2.89,2.89,0,0,0,.86.36,1.82,1.82,0,0,1,1,1,1.73,1.73,0,0,1,.27.91,2.26,2.26,0,0,1-1.25,2,4.13,4.13,0,0,1-1.88.39,3.12,3.12,0,0,1-3-1.59,3.45,3.45,0,0,1-.29-1.2h1.85a1.81,1.81,0,0,0,.52,1.11,1.13,1.13,0,0,0,.86.36,1.24,1.24,0,0,0,1.18-.66,1.14,1.14,0,0,0,.07-0.43q0-.88-1.79-1.82c-0.19-.08-0.6-0.21-1.22-0.39a0.09,0.09,0,0,0-.07-0.05,0.89,0.89,0,0,0,.15-0.25V53.19a2.88,2.88,0,0,0-.73-0.77A2.34,2.34,0,0,1,19.08,51V50.74a2.18,2.18,0,0,1,1.67-2A4.14,4.14,0,0,1,21.89,48.52Z" transform="translate(0 -36.28)"/><path class="cls-1" d="M25.93,48.64h2v4.29a0.81,0.81,0,0,1-.69.55l0,0.05v0.07a0.84,0.84,0,0,1,.73.63v3.85h-2V54.25a0.84,0.84,0,0,0-.73-0.64V53.5a0.83,0.83,0,0,0,.73-0.64V48.64Z" transform="translate(0 -36.28)"/><path class="cls-1" d="M28.5,48.64h6.07v1.45H32.52v2.8a0.78,0.78,0,0,1-.69.59l0,0.05v0a1.88,1.88,0,0,0,.44.23,0.5,0.5,0,0,1,.29.38v3.9h-2v-3.8a0.81,0.81,0,0,0-.73-0.66V53.54a2.46,2.46,0,0,1,.52-0.27,0.52,0.52,0,0,0,.22-0.43V50.09H28.5V48.64Z" transform="translate(0 -36.28)"/><path class="cls-1" d="M38.3,48.64H41.4a3.23,3.23,0,0,1,2.74,1.27,1.6,1.6,0,0,1,.3.89v2.15a0.83,0.83,0,0,1-.71.61s0,0,0,0a0.83,0.83,0,0,0,.44.25,0.51,0.51,0,0,1,.31.39v1.68q0,1.22-1.79,2a4.5,4.5,0,0,1-1.15.18H38.3V54.24a0.63,0.63,0,0,0-.54-0.48,0.26,0.26,0,0,1-.2-0.17A1.16,1.16,0,0,0,38.28,53a0.69,0.69,0,0,0,0-.18V48.64Zm2,1.47v2.74a0.73,0.73,0,0,1-.66.63l-0.07.07v0.07a0.81,0.81,0,0,1,.73.66v2.4h1.18a1.08,1.08,0,0,0,1.05-.61,0.43,0.43,0,0,0,0-.14V54.24a0.86,0.86,0,0,0-.73-0.63V53.54l0.59-.32a0.44,0.44,0,0,0,.15-0.32v-2a0.91,0.91,0,0,0-.88-0.75H40.26Z" transform="translate(0 -36.28)"/><path class="cls-1" d="M48,48.52h0.29a3.26,3.26,0,0,1,2.67,1.29,1.77,1.77,0,0,1,.27.88v2.25a0.82,0.82,0,0,1-.71.61l0,0v0a3.37,3.37,0,0,0,.54.29,0.45,0.45,0,0,1,.2.36V56q0,1.31-1.81,2a4.48,4.48,0,0,1-1.3.2,3.29,3.29,0,0,1-2.82-1.35A1.78,1.78,0,0,1,45,56V54.28a0.69,0.69,0,0,0-.64-0.57,0.25,0.25,0,0,1-.1-0.13A1.16,1.16,0,0,0,45,53a0.67,0.67,0,0,0,0-.18V50.69q0-1.18,1.67-1.93A4,4,0,0,1,48,48.52Zm-1,2.24v2.11a0.74,0.74,0,0,1-.66.59l-0.07.07v0a2.62,2.62,0,0,0,.52.27,0.47,0.47,0,0,1,.22.41v1.68a0.88,0.88,0,0,0,.83.79l0.2,0h0.25a1.15,1.15,0,0,0,.66-0.25,0.7,0.7,0,0,0,.29-0.55V54.29a0.71,0.71,0,0,0-.64-0.62,0.2,0.2,0,0,0-.12-0.07,0.58,0.58,0,0,1,.42-0.25,0.54,0.54,0,0,0,.34-0.51V50.76a0.89,0.89,0,0,0-.88-0.8l-0.24,0a1.06,1.06,0,0,0-1.08.64A0.7,0.7,0,0,0,47,50.76Z" transform="translate(0 -36.28)"/><path class="cls-1" d="M51.82,48.64h2a1.51,1.51,0,0,1,.15.63s0.27,1.26.76,3.71a0.68,0.68,0,0,1-.51.51,0.2,0.2,0,0,0-.1.07v0a0.09,0.09,0,0,0,.07.05v0l0,0a0.79,0.79,0,0,1,.44-0.25,0.8,0.8,0,0,0,.49-0.82q0-.17.73-3.87h2a4,4,0,0,1,.27,1.2q0.07,0.29.66,3.19a0.66,0.66,0,0,1-.52.46,0.12,0.12,0,0,0-.07.09,2.58,2.58,0,0,1,.56-0.27A0.67,0.67,0,0,0,59,52.72l0.78-4.06h2v0q-0.78,3.79-1,4.45a1.22,1.22,0,0,1-.61.38,0.56,0.56,0,0,0-.22.12v0l0.47,0.29a0.45,0.45,0,0,1,.15.27l-0.83,3.87H58a1.21,1.21,0,0,1-.15-0.59s-0.26-1.16-.73-3.37a1.36,1.36,0,0,0-.78-0.51,0.21,0.21,0,0,1-.07-0.11A0.82,0.82,0,0,0,56.87,53v0h0a1.08,1.08,0,0,1-.79.52l0,0v0.05a0.93,0.93,0,0,1,.59.48v0.07l-0.76,3.94H54l-0.91-3.92a2,2,0,0,0-.81-0.45l-0.07-.05a1.9,1.9,0,0,1,.49-0.32,0.47,0.47,0,0,0,.12-0.22V53.06q0-.1-1-4.42h0Z" transform="translate(0 -36.28)"/><path class="cls-1" d="M62.17,48.64h2.18a3.07,3.07,0,0,1,.34.79Q66.13,52.9,66.13,53v0.09a0.63,0.63,0,0,1-.47.41l0,0v0.05l0.71,0.32a1.74,1.74,0,0,1,.56,1v0h0V54.25a0.77,0.77,0,0,0-.66-0.61l-0.07-.07v0a2.86,2.86,0,0,0,.64-0.36,0.35,0.35,0,0,0,.1-0.21V48.64h2v4.15a0.6,0.6,0,0,1-.44.64l-0.32.16a1.48,1.48,0,0,0,.52.3,0.57,0.57,0,0,1,.24.34v3.85H66.8q-0.12-.34-1.76-4a2.63,2.63,0,0,0-1-.51l0-.09a0.68,0.68,0,0,0,.49-0.45,6.76,6.76,0,0,0-.37-0.95h0v0.72a0.75,0.75,0,0,1-.66.64l-0.07.07v0a2.49,2.49,0,0,0,.54.29,0.56,0.56,0,0,1,.15.19,0.57,0.57,0,0,1,.05.24v3.79h-2V54.22a0.69,0.69,0,0,0-.61-0.48l-0.1-.07a0.67,0.67,0,0,1,.42-0.29A0.56,0.56,0,0,0,62.17,53V48.64Z" transform="translate(0 -36.28)"/><path class="cls-2" d="M46.64,36.61c-0.2.34,0,1.21,0.58,1h0a0.54,0.54,0,0,0,.31-0.38,0.61,0.61,0,0,0-.06-0.4,0.57,0.57,0,0,0-.57-0.32,0.35,0.35,0,0,0-.16,0A0.35,0.35,0,0,0,46.64,36.61Z" transform="translate(0 -36.28)"/><path class="cls-3" d="M46.64,36.61c-0.2.34,0,1.21,0.58,1h0a0.54,0.54,0,0,0,.31-0.38s-0.38.41-.59,0a0.33,0.33,0,0,1,.54-0.39,0.57,0.57,0,0,0-.57-0.32,0.35,0.35,0,0,0-.16,0A0.35,0.35,0,0,0,46.64,36.61Z" transform="translate(0 -36.28)"/><path class="cls-2" d="M41.72,39.22c-0.87.47-1,1.87-.56,3.4S41,43.85,40.09,45.49a2.84,2.84,0,0,0-.32,2.12,5.26,5.26,0,0,0,.87,1.82s-0.88-1.88-.44-3c0.5-1.23,2.48-1.13,2.07-2a2.3,2.3,0,0,1,.41-2.19,0.62,0.62,0,0,1,.73-0.18s0.73,3.09,3.44,1.39c1.61-1,.3-3.43-0.67-3.48a0.75,0.75,0,0,0,.56-1.12,0.79,0.79,0,0,0-.26-0.3,3,3,0,0,0-4,1.18S42.73,38.68,41.72,39.22Z" transform="translate(0 -36.28)"/><path class="cls-3" d="M42.85,41a2,2,0,0,0-.17,1.29,0.62,0.62,0,0,1,.73-0.17,1.17,1.17,0,0,1,.36-1.25S43.11,41.51,42.85,41Z" transform="translate(0 -36.28)"/><path class="cls-3" d="M41.72,39.22c-0.87.47-1,1.87-.56,3.4S41,43.85,40.09,45.49a2.84,2.84,0,0,0-.32,2.12c0-1.63,1.24-2.73,1.7-3.43,0.65-1,.27-1.41,0-2.31s0.82-.44.82-0.44c-0.46-1,.81-2.19,1.57-1.71a1,1,0,0,0,.9.15s-0.81-.31-0.65-0.77c0.37-1.06,2.33-.52,2.38-0.51a3,3,0,0,0-4,1.18S42.73,38.68,41.72,39.22Z" transform="translate(0 -36.28)"/><path class="cls-4" d="M85.26,57.39l-0.09,0L85,57.29l-0.12,0-0.05,0-0.58-.71a2.08,2.08,0,0,1-.3-0.67c-0.07-.28-0.13-0.54-0.18-0.77a1.26,1.26,0,0,0,0-.23,0.9,0.9,0,0,0-.06-0.28,1.4,1.4,0,0,0-.11-0.18,1.69,1.69,0,0,0-.17-0.22l0-.05s0,0,0-.15a1,1,0,0,0,0-.12,0.31,0.31,0,0,1,0,0v0l0,0-0.06-.14a0.72,0.72,0,0,0-.09-0.19,2.28,2.28,0,0,0-.71-0.69,1.76,1.76,0,0,0-.91-0.23l-0.1,0h0a6.76,6.76,0,0,0-.72.19,3.19,3.19,0,0,0-.64.28,3.4,3.4,0,0,0-.57.42A3.79,3.79,0,0,0,79,54a3.08,3.08,0,0,0-.31.47,2.69,2.69,0,0,0-.23.52,4.39,4.39,0,0,0-.17.82q0,0.18,0,.36l-0.14.06L78,56.27h0l0,0,0,0-0.12.08-0.11.07H77.6a5.32,5.32,0,0,1-1.08.34c-0.37.07-.75,0.13-1.13,0.18H75l-0.78-.1a2.59,2.59,0,0,1-.68-0.2A1.65,1.65,0,0,1,73,56.29a2.06,2.06,0,0,1-.39-0.75V55.46a7.56,7.56,0,0,1,0-.82,2.45,2.45,0,0,1,.2-0.71,7.84,7.84,0,0,1,.49-1,5.76,5.76,0,0,1,.56-0.76,6.47,6.47,0,0,1,.64-0.67c0.23-.21.49-0.42,0.76-0.61l0.12-.06,0.16-.09h0a0.38,0.38,0,0,0,.15-0.07l0.65-.46A1.1,1.1,0,0,1,77.08,50h0.28l0.24,0,0.26,0L78,50.19l0.17,0.12a0.25,0.25,0,0,0,.13,0h0l0.09-.05,0,0,0.09-.11,0.1-.12,0,0V49.92a1,1,0,0,0-.13-0.51,1.14,1.14,0,0,0-.31-0.35,1.48,1.48,0,0,0-.39-0.21,1.19,1.19,0,0,0-.4-0.08,3.29,3.29,0,0,0-1.07.17,4.91,4.91,0,0,0-1,.47l-0.32.21-0.42.27-0.38.24L74,50.28l0,0-0.09.09-0.17.15-0.17.17-0.12.13-0.25.29-0.36.44L72.5,52l-0.24.31a4.17,4.17,0,0,0-.46,1l-0.32,1s0,0.09,0,.17a0.85,0.85,0,0,0,0,.18v0.43a4,4,0,0,0,0,.63,4.26,4.26,0,0,0,.15.61,3,3,0,0,0,.42.85,2.4,2.4,0,0,0,.58.57,3,3,0,0,0,.69.34,5.7,5.7,0,0,0,.76.21h1c0.38,0,.75,0,1.09,0a2.43,2.43,0,0,0,1.11-.38,0.93,0.93,0,0,0,.15-0.14l0.08-.08h0l0.08,0,0.13,0h0l0,0,0.2-.13,0.14-.11a1.76,1.76,0,0,0,.21.53,1.65,1.65,0,0,0,.72.66l0,0h0.44a2,2,0,0,0,.66-0.11,2.25,2.25,0,0,0,.6-0.33c0.36-.24.7-0.49,1-0.73a6.89,6.89,0,0,0,.88-0.84h0.13L83,57.16l0.77,0.92a1,1,0,0,0,.48.31,1.8,1.8,0,0,0,.5.08h0.35l0,0a0.84,0.84,0,0,0,.31-0.65,0.51,0.51,0,0,0,0-.2A0.38,0.38,0,0,0,85.26,57.39Zm-5.74-.17h0l-0.14-.17,0,0V56.12a1.89,1.89,0,0,0,.15-0.51,1.85,1.85,0,0,1,.14-0.45,2.32,2.32,0,0,1,.33-0.5l0.41-.48,0.07-.06,0.09-.06L80.66,54l0.25-.13,0.21-.11,0.06,0h1l0.07,0,0.15,0.15a1.1,1.1,0,0,1,.12.17,0.23,0.23,0,0,1,0,.1,4.15,4.15,0,0,1,0,.53,0.84,0.84,0,0,1-.13.42l-0.51.61-0.06,0-0.15.13-0.16.15-0.12.11-0.43.38a5.06,5.06,0,0,1-.42.34,2.17,2.17,0,0,1-.42.24,1.14,1.14,0,0,1-.44.08H79.52Z" transform="translate(0 -36.28)"/><path class="cls-4" d="M99.92,56.45l-0.13-.11-0.11-.07-0.1-.06-0.09.08-0.17.11-0.15.09h0l-0.08,0-0.2,0-0.21,0-0.08,0h0c-0.22.08-.45,0.17-0.69,0.27a2.46,2.46,0,0,1-.65.18H96.89l-0.16,0-0.14,0-0.16,0-0.08,0H94.91l-0.12,0-0.07,0,0,0H94.53a2.49,2.49,0,0,1-.7-0.3,1.23,1.23,0,0,1-.51-0.59c-0.09-.19-0.17-0.38-0.25-0.57A1.42,1.42,0,0,1,93,55.13a0.67,0.67,0,0,1,0-.25,0.18,0.18,0,0,1,.09-0.08l0.24,0,0.4,0,0.4,0,0.26,0a2.36,2.36,0,0,0,.74-0.25A6.49,6.49,0,0,0,95.79,54l0.29-.18a0.75,0.75,0,0,0,.34-0.35V53.37l0-.15,0-.15,0-.08,0.06-.12a0.81,0.81,0,0,0,.07-0.17,0.63,0.63,0,0,0,0-.18V52.33a1.33,1.33,0,0,0-.12-0.64,0.75,0.75,0,0,0-.36-0.34,1.26,1.26,0,0,0-.46-0.1c-0.36,0-.78,0-1.1,0a2,2,0,0,0-.55.11,2.16,2.16,0,0,0-.51.26,3.21,3.21,0,0,0-.51.44l-0.13.14-0.19.23-0.19.24-0.14.17,0,0a0.43,0.43,0,0,1-.05.1l-0.06.11a1,1,0,0,1-.13.13l-0.2.22a1.58,1.58,0,0,0-.18.27,0.76,0.76,0,0,0-.09.36,1.11,1.11,0,0,0,0,.15,0.42,0.42,0,0,0,.05.16,2.14,2.14,0,0,0,0,.25c0,0.11,0,.28,0,0.44v0.18a2,2,0,0,0-.47.12,3.06,3.06,0,0,1-.63.17H90.27l-0.12,0-0.11,0-0.17,0H89.2l0,0v0a2.07,2.07,0,0,1,0-.24c0-.11,0-0.22,0-0.33s0-.19,0-0.28,0-.14,0-0.14l0-.34,0-.42c0-.15,0-0.27,0-0.39a0.91,0.91,0,0,1,.07-0.25l0,0,0.07-.08a0.92,0.92,0,0,1,.38-0.2,1.57,1.57,0,0,0,.54-0.22l0,0,0.19-.16,0.19-.16a2.4,2.4,0,0,0,.57-0.9q0.19-.51.34-1c0.1-.31.18-0.6,0.24-0.85a4.32,4.32,0,0,0,.09-0.94A5.27,5.27,0,0,0,92,48a2.4,2.4,0,0,0-.16-0.62l0,0-0.06-.09,0-.08,0-.08,0-.14c0-.06,0-0.11,0-0.16a0.45,0.45,0,0,0,0-.12l-0.07-.11-0.12-.15-0.12-.13-0.08-.09,0,0A0.51,0.51,0,0,0,90.84,46H90.61a1,1,0,0,0-.82.46,3.81,3.81,0,0,0-.52,1,7.67,7.67,0,0,0-.33,1.15c-0.08.39-.13,0.71-0.17,0.95v0a0.89,0.89,0,0,1,0,.17c0,0.09,0,.2,0,0.31s0,0.22,0,.32,0,0.15,0,.18l-0.05.12a0.79,0.79,0,0,0-.07.19,1.59,1.59,0,0,0,0,.31,0.38,0.38,0,0,1-.06.23L87.95,52v0.28a0.79,0.79,0,0,0,.06.34,1.3,1.3,0,0,0,.11.19,0.75,0.75,0,0,1,.08.14,0.6,0.6,0,0,1,0,.23v0.33a1.74,1.74,0,0,1,0,.24c0,0.14,0,.28-0.06.44s0,0.3-.06.43a2.16,2.16,0,0,0,0,.29V55c0,0.07,0,.15,0,0.23s0,0.17,0,.24a0.69,0.69,0,0,1,0,.1v0l-0.06.12,0,0.07h-0.1l-0.15,0-0.22,0-0.22,0H86.07a0.68,0.68,0,0,0-.37-0.15l-0.36,0a0.65,0.65,0,0,0-.39.12,0.51,0.51,0,0,0-.2.44,0.64,0.64,0,0,0,.07.31,0.64,0.64,0,0,0,.21.24,1.64,1.64,0,0,0,.42.22h0l1.23,0.08a11.22,11.22,0,0,0,1.17,0l0,0.05v0.24a3.65,3.65,0,0,1,0,.51,4,4,0,0,0,0,.56v0.24a1,1,0,0,0,0,.16,2.26,2.26,0,0,1,0,.23c0,0.08,0,.17,0,0.24s0,0.1,0,.12,0,0.17,0,.37,0,0.4,0,.62,0,0.44,0,.64,0,0.32,0,.37v0.06a1.08,1.08,0,0,1,0,.16c0,0.1,0,.15,0,0.19v0.48l-0.11.14-0.13.14-0.09.06V62.8a2.16,2.16,0,0,0,.17.56,0.55,0.55,0,0,0,.52.36,0.64,0.64,0,0,0,.41-0.13,0.86,0.86,0,0,0,.24-0.3,1.25,1.25,0,0,0,.11-0.4,3.5,3.5,0,0,0,0-.43V61.62a1.14,1.14,0,0,0,0-.14c0-.06,0-0.11,0-0.17s0-.13,0-0.2a0.78,0.78,0,0,1,0-.11c0-.44,0-0.82,0-1.16s0-.72,0-1.14V58.27l0.07-.73c0-.11,0-0.26,0-0.43l0.47-.45H90.5a0.27,0.27,0,0,0,.13,0l0.1-.07,0.19-.1,0.2-.06,0.22,0,0.28-.07,0,0,0.13-.08,0.1-.07h0a2.06,2.06,0,0,0,.09.33,2.71,2.71,0,0,0,.26.51,5.22,5.22,0,0,0,.33.44l0.32,0.38a0.65,0.65,0,0,0,.13.11l0.09,0.07L93.27,58l0.07,0,0.19,0.12,0.14,0.08,0,0.06h0.13l0.06,0,0,0h0l0.24,0,0.34,0.05,0.32,0,0.21,0h0.72l0.31-.06,0.45-.07L97,58.31l0.28,0h0.07l0,0,0.14-.1L97.78,58,98,57.81l0.18-.11h0l0.16,0,0.17,0a0.41,0.41,0,0,0,.14-0.07l0.15-.11L99,57.32l0.06,0,0.13-.06,0.12-.05h0.05l0.17-.08L99.73,57a1.07,1.07,0,0,0,.17-0.15,0.35,0.35,0,0,0,.11-0.24V56.5Zm-6.45-3,0.15-.18L93.81,53l0.07-.06,0.12-.1,0.1-.13,0.06-.08,0.23-.09,0.32-.13L95,52.31a1,1,0,0,1,.58,0,0.4,0.4,0,0,1,.18.15,0.48,0.48,0,0,1-.05.23,0.64,0.64,0,0,1-.14.17,0.92,0.92,0,0,1-.21.13l-0.23.11L95,53.16l-0.12.07-0.15.08,0,0-0.11,0-0.18,0-0.21,0H94.11a2.63,2.63,0,0,0-.44.1l-0.19,0V53.4h0ZM89.6,51.35l0-.08a0.56,0.56,0,0,0,0-.17,0.66,0.66,0,0,1,0-.12,2.27,2.27,0,0,0,0-.25c0-.08,0-0.16,0-0.23s0-.1,0-0.13,0-.1.06-0.26l0.13-.55c0-.22.1-0.43,0.14-0.65l0.1-.52c0-.13.05-0.23,0.08-0.35a3.25,3.25,0,0,1,.1-0.32,1.64,1.64,0,0,1,.13-0.28,0.5,0.5,0,0,1,.17-0.17h0.09l0.07,0.09,0.13,0.16a1,1,0,0,1,.18.46,4.62,4.62,0,0,1,0,.59v0.78a1.28,1.28,0,0,1-.06.33l0,0.12L91,50l-0.08.18,0,0.11-0.08.13-0.14.24-0.13.23L90.43,51a3.32,3.32,0,0,1-.37.49,0.52,0.52,0,0,1-.37.21s-0.08,0-.08-0.16v-0.2Z" transform="translate(0 -36.28)"/><path class="cls-4" d="M8.78,36.3l-0.17,0a36.38,36.38,0,0,1,1,8.87A10.11,10.11,0,0,1,9,48.64C7.24,52.7,8.1,58.15,8.44,59.47c4.52-.37,8.1-5.42,8.1-11.6C16.54,41.84,13.13,36.89,8.78,36.3Z" transform="translate(0 -36.28)"/><path class="cls-1" d="M7.31,48.48c1.62-4.21-.46-12-0.46-12C2.93,37.59,0,42.26,0,47.86s2.8,10,6.57,11.29c-0.13-.69-0.24-1.4-0.32-2.13A19.08,19.08,0,0,1,7.31,48.48Z" transform="translate(0 -36.28)"/></svg>